<?xml version="1.0" encoding="UTF-8" standalone="no"?>
<!-- Created with Inkscape (http://www.inkscape.org/) -->
<svg xmlns:dc="http://purl.org/dc/elements/1.1/" xmlns:cc="http://creativecommons.org/ns#" xmlns:rdf="http://www.w3.org/1999/02/22-rdf-syntax-ns#" xmlns:svg="http://www.w3.org/2000/svg" xmlns="http://www.w3.org/2000/svg" version="1.1" width="5250" height="5250" id="svg2" xml:space="preserve">
	<metadata id="metadata8">
		<rdf:RDF>
			<cc:Work rdf:about="">
				<dc:format>image/svg+xml</dc:format>
				<dc:type rdf:resource="http://purl.org/dc/dcmitype/StillImage"/>
				<dc:title/>
			</cc:Work>
		</rdf:RDF>
	</metadata>
	<style type="text/css"><![CDATA[
		path {
			fill-opacity: 1;
			fill-rule: nonzero;
			stroke: none;
		}
	]]></style>
	<g transform="matrix(1.25,0,0,-1.25,0,5250)">
		<path d="m 0,0 4200,0 0,4200 L 0,4200 0,0 z" fill="#c36549"/>
		<g transform="translate(1950.0034,1575.002)">
			<path d="M 0,0 -149.997,262.5 -299.997,0 -0.007,0 0,0 z" fill="#e96f58"/>
		</g>
		<g transform="translate(1950.0034,1575.002)">
			<path d="m 0,0 -0.003,-0.006 150,-262.495 L 299.995,0 0,0 z" fill="#be4947"/>
		</g>
		<g transform="translate(3750,524.9932)">
			<path d="M 0,0 150,-262.493 299.996,0.007 0.004,0.007 0,0 z" fill="#276759"/>
		</g>
		<g transform="translate(4049.9961,3149.999)">
			<path d="M 0,0 -149.996,262.504 -299.992,0 0,0 z" fill="#1d2d44"/>
		</g>
		<g transform="translate(2850,2099.998)">
			<path d="M 0,0 -149.998,262.504 -299.994,0 0,0 z" fill="#26bea3"/>
		</g>
		<g transform="translate(2550.002,1574.9951)">
			<path d="M 0,0 150,-262.494 299.998,0.007 0.004,0.007 0,0 z" fill="#476250"/>
		</g>
		<g transform="translate(3750,1574.9951)">
			<path d="M 0,0 150,-262.494 299.996,0.007 0.004,0.007 0,0 z" fill="#23736d"/>
		</g>
		<g transform="translate(3150,525)">
			<path d="M 0,0 -0.003,-0.005 149.998,-262.5 300.002,0 0,0 z" fill="#1d5c4c"/>
		</g>
		<g transform="translate(4049.9961,2099.998)">
			<path d="M 0,0 -149.996,262.504 -299.992,0 0,0 z" fill="#146a80"/>
		</g>
		<g transform="translate(3750,2624.9912)">
			<path d="M 0,0 150,-262.489 299.996,0.007 0.004,0.007 0,0 z" fill="#145672"/>
		</g>
		<g transform="translate(2550.002,2624.9912)">
			<path d="M 0,0 150,-262.489 299.998,0.007 0.004,0.007 0,0 z" fill="#3bb391"/>
		</g>
		<g transform="translate(4049.9961,1050)">
			<path d="M 0,0 -149.996,262.501 -299.992,0 0,0 z" fill="#2d705d"/>
		</g>
		<g transform="translate(300.0059,2362.502)">
			<path d="m 0,0 150,262.496 -300.001,0 -0.002,-0.004 L 0,0 z" fill="#974c3a"/>
		</g>
		<g transform="translate(1800.0063,2887.502)">
			<path d="m 0,0 149.997,262.497 -299.997,0 -0.004,-0.007 L 0,0 z" fill="#c1b861"/>
		</g>
		<g transform="translate(2850,1050)">
			<path d="M 0,0 150.004,-262.5 300,0 0,0 z" fill="#166b61"/>
		</g>
		<g transform="translate(2250.001,2099.9932)">
			<path d="M 0,0 150.001,-262.491 300.005,0.005 0.003,0.005 0,0 z" fill="#9dbd6b"/>
		</g>
		<g transform="translate(3449.9941,1050)">
			<path d="M 0,0 0.008,0 -149.996,262.501 -299.994,0 0,0 z" fill="#30735d"/>
		</g>
		<g transform="translate(450.0059,3149.999)">
			<path d="M 0,0 -150,262.504 -300.001,0 -0.004,0 0,0 z" fill="#6b3837"/>
		</g>
		<g transform="translate(2100,2362.502)">
			<path d="m 0,0 -149.997,-262.504 299.995,0 L 0,0 z" fill="#bdc85c"/>
		</g>
		<g transform="translate(2250.0039,1050)">
			<path d="M 0,0 -0.003,-0.005 149.998,-262.5 300.002,0 0,0 z" fill="#76515b"/>
		</g>
		<g transform="translate(450.0059,2099.998)">
			<path d="M 0,0 -150,262.504 -300.001,0 -0.004,0 0,0 z" fill="#a95c3d"/>
		</g>
		<g transform="translate(300.0059,1312.501)">
			<path d="m 0,0 150,262.501 -300.001,0 -0.002,-0.004 L 0,0 z" fill="#7c7c5a"/>
		</g>
		<g transform="translate(300.0059,3412.5029)">
			<path d="m 0,0 150,262.496 -300.001,0 -0.002,-0.003 L 0,0 z" fill="#53323a"/>
		</g>
		<g transform="translate(3149.9941,3674.999)">
			<path d="M 0,0 0.006,0 -149.99,262.496 -299.994,0 0,0 z" fill="#3b3244"/>
		</g>
		<g transform="translate(2549.998,3674.999)">
			<path d="M 0,0 0.008,0 -149.996,262.496 -299.994,0 0,0 z" fill="#586566"/>
		</g>
		<g transform="translate(3750,3674.9922)">
			<path d="M 0,0 150,-262.489 299.996,0.007 0.004,0.007 0,0 z" fill="#17243f"/>
		</g>
		<g transform="translate(3749.9961,3674.999)">
			<path d="M 0,0 0.008,0 -149.998,262.496 -299.994,0 0,0 z" fill="#000000"/>
		</g>
		<g transform="translate(2400.002,2887.502)">
			<path d="m 0,0 150.004,262.497 -300.002,0 -0.003,-0.005 L 0,0 z" fill="#879570"/>
		</g>
		<g transform="translate(1949.9966,3674.999)">
			<path d="M 0,0 0.007,0 -149.99,262.496 -299.99,0 0,0 z" fill="#a2a077"/>
		</g>
		<g transform="translate(750,3674.999)">
			<path d="m 0,0 0.007,0 -150,262.496 L -299.991,0 0,0 z" fill="#7e4840"/>
		</g>
		<g transform="translate(2100,2362.502)">
			<path d="m 0,0 149.998,262.496 -299.995,0 L -150,262.49 0,0 z" fill="#c2c55c"/>
		</g>
		<g transform="translate(1349.9976,3674.999)">
			<path d="M 0,0 0.008,0 -149.993,262.496 -299.99,0 0,0 z" fill="#c5b14d"/>
		</g>
		<g transform="translate(3000.0039,1837.502)">
			<path d="m 0,0 149.996,262.496 -300,0 L 0,0 z" fill="#09b4aa"/>
		</g>
		<g transform="translate(1500.002,1312.501)">
			<path d="m 0,0 150,262.501 -299.997,0 L -150,262.494 0,0 z" fill="#e53843"/>
		</g>
		<g transform="translate(1050.0073,525)">
			<path d="M 0,0 299.99,0 299.998,0 149.997,262.5 0,0 z" fill="#9d8f9c"/>
		</g>
		<g transform="translate(450.0059,1050)">
			<path d="M 0,0 -150,262.501 -300.001,0 -0.004,0 0,0 z" fill="#358a7a"/>
		</g>
		<g transform="translate(1650.0024,2099.998)">
			<path d="M 0,0 -150,262.504 -299.997,0 -0.004,0 0,0 z" fill="#dfa83f"/>
		</g>
		<g transform="translate(900.0034,1312.501)">
			<path d="m 0,0 -149.997,-262.501 299.994,0 L 0,0 z" fill="#777071"/>
		</g>
		<g transform="translate(1500.002,1312.501)">
			<path d="m 0,0 -149.997,-262.501 299.994,0 0.003,0 L 0,0 z" fill="#e32545"/>
		</g>
		<g transform="translate(3149.9971,2624.9932)">
			<path d="M 0,0 150.001,-262.491 300.005,0.005 0.003,0.005 0,0 z" fill="#099799"/>
		</g>
		<g transform="translate(1500.002,2362.502)">
			<path d="m 0,0 150,262.496 -299.997,0 L -150,262.489 0,0 z" fill="#d9b445"/>
		</g>
		<g transform="translate(1650.0063,525)">
			<path d="M 0,0 299.99,0 299.997,0 150,262.5 0,0 z" fill="#d66e7b"/>
		</g>
		<g transform="translate(2250.0039,525)">
			<path d="M 0,0 299.994,0 300.002,0 149.998,262.5 0,0 z" fill="#466070"/>
		</g>
		<g transform="translate(900.0034,2362.502)">
			<path d="m 0,0 -149.997,-262.504 299.994,0 L 0,0 z" fill="#d97836"/>
		</g>
		<g transform="translate(2249.998,3149.999)">
			<path d="M 0,0 -149.998,262.504 -299.995,0 0,0 z" fill="#c1bc8e"/>
		</g>
		<g transform="translate(900.0034,1312.501)">
			<path d="m 0,0 149.997,262.501 -299.994,0 L -150,262.495 0,0 z" fill="#af6850"/>
		</g>
		<g transform="translate(3149.9941,1575.002)">
			<path d="M 0,0 0.006,0 -149.99,262.5 -299.994,0 0,0 z" fill="#1c8d7e"/>
		</g>
		<g transform="translate(2850,3149.999)">
			<path d="M 0,0 -149.998,262.504 -299.994,0 0,0 z" fill="#525f59"/>
		</g>
		<g transform="translate(900.0034,3412.5029)">
			<path d="m 0,0 -149.997,-262.504 299.994,0 L 0,0 z" fill="#d5a246"/>
		</g>
		<g transform="translate(1649.9985,3149.999)">
			<path d="M 0,0 0.004,0 -149.997,262.504 -299.993,0 0,0 z" fill="#d8c571"/>
		</g>
		<g transform="translate(2550.0059,525)">
			<path d="M 0,0 -0.004,-0.007 149.996,-262.5 299.994,0 0,0 z" fill="#23565e"/>
		</g>
		<g transform="translate(2850,525)">
			<path d="M 0,0 299.994,0 300,0 150.004,262.5 0,0 z" fill="#1a6457"/>
		</g>
		<g transform="translate(1950.0034,1050)">
			<path d="M 0,0 299.995,0 149.997,262.501 0,0 z" fill="#c52945"/>
		</g>
		<g transform="translate(900.0034,2362.502)">
			<path d="m 0,0 149.997,262.496 -299.994,0 L -150,262.49 0,0 z" fill="#dc8b3a"/>
		</g>
		<g transform="translate(2550.0059,1050)">
			<path d="M 0,0 299.994,0 149.996,262.501 0,0 z" fill="#356453"/>
		</g>
		<g transform="translate(3449.9941,3149.999)">
			<path d="M 0,0 0.008,0 -149.996,262.504 -299.994,0 0,0 z" fill="#303a51"/>
		</g>
		<g transform="translate(3149.9971,1574.9971)">
			<path d="M 0,0 150.001,-262.496 300.005,0.005 0.003,0.005 0,0 z" fill="#248472"/>
		</g>
		<g transform="translate(750.0068,2624.998)">
			<path d="M 0,0 -150,262.504 -299.998,0 -0.007,0 0,0 z" fill="#cf7038"/>
		</g>
		<g transform="translate(3149.9941,2624.998)">
			<path d="M 0,0 0.006,0 -149.99,262.504 -299.994,0 0,0 z" fill="#169b8c"/>
		</g>
		<g transform="translate(1949.9966,2624.998)">
			<path d="M 0,0 0.007,0 -149.99,262.504 -299.99,0 0,0 z" fill="#d0c656"/>
		</g>
		<g transform="translate(2549.998,2624.998)">
			<path d="M 0,0 0.008,0 -149.996,262.504 -299.994,0 0,0 z" fill="#99b475"/>
		</g>
		<g transform="translate(3449.998,1049.9932)">
			<path d="M 0,0 150,-262.493 300.006,0.007 0.004,0.007 0,0 z" fill="#2a6f5f"/>
		</g>
		<g transform="translate(1350.0054,525)">
			<path d="M 0,0 -0.003,-0.007 149.997,-262.5 299.997,0 0,0 z" fill="#ce8e90"/>
		</g>
		<g transform="translate(750.0068,525)">
			<path d="M 0,0 -0.004,-0.006 149.997,-262.5 299.994,0 0,0 z" fill="#3a999f"/>
		</g>
		<g transform="translate(750.0068,525)">
			<path d="M 0,0 -150,262.5 -299.998,0 -0.007,0 0,0 z" fill="#0fbab7"/>
		</g>
		<g transform="translate(1950.0034,525)">
			<path d="M 0,0 -0.003,-0.006 149.997,-262.5 299.995,0 0,0 z" fill="#a67a80"/>
		</g>
		<g transform="translate(3749.9961,2624.998)">
			<path d="M 0,0 0.008,0 -149.998,262.504 -299.994,0 0,0 z" fill="#125776"/>
		</g>
		<g transform="translate(3449.998,3149.9922)">
			<path d="M 0,0 150,-262.49 300.006,0.007 0.004,0.007 0,0 z" fill="#1a3857"/>
		</g>
		<g transform="translate(3299.998,3412.5029)">
			<path d="m 0,0 150.004,262.496 -300.002,0 -0.003,-0.005 L 0,0 z" fill="#0e1821"/>
		</g>
		<g transform="translate(3449.998,2099.9912)">
			<path d="M 0,0 150,-262.489 300.006,0.007 0.004,0.007 0,0 z" fill="#0a969f"/>
		</g>
		<g transform="translate(3749.9961,1575.002)">
			<path d="M 0,0 0.008,0 -149.998,262.5 -299.994,0 0,0 z" fill="#1b887d"/>
		</g>
		<g transform="translate(3449.9941,2099.998)">
			<path d="M 0,0 0.008,0 -149.996,262.504 -299.994,0 0,0 z" fill="#02aeb0"/>
		</g>
		<g transform="translate(2700.002,3412.5029)">
			<path d="m 0,0 149.998,262.496 -299.994,0 L -150,262.489 0,0 z" fill="#575258"/>
		</g>
		<g transform="translate(1500.002,3412.5029)">
			<path d="m 0,0 150,262.496 -299.997,0 L -150,262.489 0,0 z" fill="#baab60"/>
		</g>
		<g transform="translate(900.0034,3412.5029)">
			<path d="m 0,0 149.997,262.496 -299.994,0 L -150,262.49 0,0 z" fill="#b47b44"/>
		</g>
		<g transform="translate(2100,3412.5029)">
			<path d="m 0,0 149.998,262.496 -299.995,0 L -150,262.49 0,0 z" fill="#a4a687"/>
		</g>
		<g transform="translate(750.0068,1575.002)">
			<path d="M 0,0 -150,262.5 -299.998,0 -0.007,0 0,0 z" fill="#c49154"/>
		</g>
		<g transform="translate(1350.0054,2624.998)">
			<path d="M 0,0 -150.001,262.504 -299.998,0 -0.008,0 0,0 z" fill="#dda446"/>
		</g>
		<g transform="translate(4050.0042,1575.0016)">
			<path d="m 0,0 149.996,0 0,262.5 L 0,0 z" fill="#28585c"/>
		</g>
		<g transform="translate(2550.0061,0)">
			<path d="M 0,0 299.993,0 149.996,262.5 0,0 z" fill="#2f374c"/>
		</g>
		<g transform="translate(1950.0029,0)">
			<path d="M 0,0 299.995,0 149.997,262.5 0,0 z" fill="#505f68"/>
		</g>
		<g transform="translate(1050.0074,4200)">
			<path d="m 0,0 -0.003,-0.006 150,-262.499 L 299.997,0 0,0 z" fill="#616f58"/>
		</g>
		<g transform="translate(450.0093,1050)">
			<path d="M 0,0 -0.003,-0.007 149.998,-262.5 299.998,0 0,0 z" fill="#2cb3b7"/>
		</g>
		<g transform="translate(4050.0042,3674.9985)">
			<path d="m 0,0 149.996,0 0,262.496 L 0,0 z" fill="#14203a"/>
		</g>
		<g transform="translate(3150,3149.999)">
			<path d="M 0,0 -300,0 -149.996,-262.497 0,0 z" fill="#23515c"/>
		</g>
		<g transform="translate(4050.0042,2099.9978)">
			<path d="m 0,0 -0.004,-0.006 150,-262.49 L 149.996,0 0,0 z" fill="#23565e"/>
		</g>
		<g transform="translate(450.0093,4200)">
			<path d="m 0,0 -0.003,-0.007 150,-262.498 L 299.997,0 0,0 z" fill="#3e3e40"/>
		</g>
		<g transform="translate(1350.0049,0)">
			<path d="m 0,0 299.997,0 -150,262.5 L 0,0 z" fill="#546374"/>
		</g>
		<g transform="translate(1350.0054,1575.002)">
			<path d="M 0,0 -150.001,262.5 -299.998,0 -0.008,0 0,0 z" fill="#d9654b"/>
		</g>
		<g transform="translate(4050.0042,3149.999)">
			<path d="m 0,0 -0.004,-0.007 150,-262.49 L 149.996,0 0,0 z" fill="#182840"/>
		</g>
		<g transform="translate(1050.0073,1050)">
			<path d="M 0,0 -0.003,-0.006 149.997,-262.5 299.998,0 0,0 z" fill="#a7506b"/>
		</g>
		<g transform="translate(2849.9995,4200)">
			<path d="M 0,0 150.004,-262.505 300,0 0,0 z" fill="#264451"/>
		</g>
		<g transform="translate(1050.0073,2099.998)">
			<path d="m 0,0 -0.003,-0.006 150,-262.49 L 299.998,0 0,0 z" fill="#da8139"/>
		</g>
		<g transform="translate(3450.0017,4200)">
			<path d="m 0,0 -0.004,-0.007 150,-262.498 L 300.002,0 0,0 z" fill="#1d4452"/>
		</g>
		<g transform="translate(4050.0042,524.9995)">
			<path d="m 0,0 149.996,0 0,262.5 L 0,0 z" fill="#20515d"/>
		</g>
		<g transform="translate(3150,0)">
			<path d="M 0,0 300.002,0 149.998,262.5 0,0 z" fill="#294b43"/>
		</g>
		<g transform="translate(3750.0034,0)">
			<path d="M 0,0 299.992,0 149.996,262.5 0,0 z" fill="#2c544a"/>
		</g>
		<g transform="translate(4050.0042,1050)">
			<path d="m 0,0 -0.004,-0.007 150,-262.493 0,262.5 L 0,0 z" fill="#2d5f55"/>
		</g>
		<g transform="translate(1650.0065,4200)">
			<path d="M 0,0 -0.004,-0.007 149.999,-262.505 299.996,0 0,0 z" fill="#4d6e67"/>
		</g>
		<g transform="translate(1200.0044,2887.502)">
			<path d="m 0,0 150.001,262.497 -299.998,0 L -150,262.491 0,0 z" fill="#dfa745"/>
		</g>
		<g transform="translate(1650.0063,1050)">
			<path d="M 0,0 -0.004,-0.007 150,-262.5 299.997,0 0,0 z" fill="#e62e4f"/>
		</g>
		<g transform="translate(2250.0034,4200)">
			<path d="M 0,0 -0.003,-0.005 149.998,-262.505 300.003,0 0,0 z" fill="#345053"/>
		</g>
		<g transform="translate(4050.0042,4200)">
			<path d="m 0,0 -0.004,-0.007 150,-262.498 L 149.996,0 0,0 z" fill="#132038"/>
		</g>
		<g transform="translate(3749.9961,525)">
			<path d="M 0,0 0.008,0 -149.998,262.5 -299.994,0 0,0 z" fill="#226458"/>
		</g>
		<g transform="translate(450.0093,2099.998)">
			<path d="M 0,0 -0.003,-0.007 149.998,-262.496 299.998,0 0,0 z" fill="#e47c34"/>
		</g>
		<g transform="translate(150.0045,0)">
			<path d="M 0,0 300.002,0 150.001,262.5 0,0 z" fill="#3a737d"/>
		</g>
		<g transform="translate(450.0093,3149.999)">
			<path d="M 0,0 -0.003,-0.007 149.998,-262.497 299.998,0 0,0 z" fill="#ab563a"/>
		</g>
		<g transform="translate(1650.0063,2099.998)">
			<path d="M 0,0 -0.004,-0.007 150,-262.496 299.997,0 0,0 z" fill="#e2b645"/>
		</g>
		<g transform="translate(2549.998,1575.002)">
			<path d="M 0,0 0.008,0 -149.996,262.5 -299.994,0 0,0 z" fill="#946953"/>
		</g>
		<g transform="translate(300.0059,262.5)">
			<path d="m 0,0 150,262.5 -300.001,0 -0.002,-0.004 L 0,0 z" fill="#0a8790"/>
		</g>
		<g transform="translate(4050.0042,2624.9973)">
			<path d="m 0,0 149.996,0 0,262.505 L 0,0 z" fill="#000000"/>
		</g>
		<g transform="translate(750.0068,0)">
			<path d="M 0,0 299.993,0 149.996,262.5 0,0 z" fill="#347983"/>
		</g>
		<g transform="translate(3899.9995,3412.5024)">
			<path d="M 0,0 149.996,-262.503 300,0 0,0 z" fill="#17192d"/>
		</g>
		<g transform="translate(0,262.5003)">
			<path d="M 0,0 0,-0.007 0.007,0 0,0 z" fill="#ffff00"/>
		</g>
		<g transform="translate(0,262.5003)">
			<path d="M 0,0 0.007,0 0,0.007 0,0 z" fill="#9900cc"/>
		</g>
		<g transform="translate(0,524.9995)">
			<path d="M 0,0 0,-262.492 0.007,-262.499 150,0 0,0 z" fill="#205561"/>
		</g>
		<g transform="translate(150.0003,524.9995)">
			<path d="M 0,0 0.002,-0.003 0.004,0 0,0 z" fill="#6699ff"/>
		</g>
		<g transform="translate(0.0074,262.5003)">
			<path d="M 0,0 299.999,0 149.995,262.496 149.993,262.499 0,0 z" fill="#196773"/>
		</g>
		<g transform="translate(0.0074,262.5003)">
			<path d="M 0,0 149.997,-262.5 299.999,0 0,0 z" fill="#377c86"/>
		</g>
		<g transform="translate(300.0059,262.5003)">
			<path d="M 0,0 150,-262.5 299.996,0 0,0 z" fill="#2e8c96"/>
		</g>
		<g transform="translate(450.0062,0)">
			<path d="M 0,0 300.001,0 149.996,262.5 0,0 z" fill="#347983"/>
		</g>
		<g transform="translate(300.0059,262.5)">
			<path d="M 0,0 299.997,0 150,262.5 0,0 z" fill="#078f97"/>
		</g>
		<g transform="translate(450.0093,525)">
			<path d="M 0,0 -0.003,0 149.993,-262.5 299.991,0 0,0 z" fill="#059da4"/>
		</g>
		<g transform="translate(750.0005,524.9995)">
			<path d="M 0,0 0.002,-0.005 0.006,0 0,0 z" fill="#6699ff"/>
		</g>
		<g transform="translate(750,525)">
			<path d="m 0,0 -149.998,-262.5 300.001,0 L 0.003,-0.006 0,0 z" fill="#178a94"/>
		</g>
		<g transform="translate(600.0023,262.5003)">
			<path d="M 0,0 150.005,-262.5 300.001,0 0,0 z" fill="#39808b"/>
		</g>
		<g transform="translate(900.0029,262.5003)">
			<path d="M 0,0 149.997,-262.5 300.002,0 0,0 z" fill="#507e8b"/>
		</g>
		<g transform="translate(1050,0)">
			<path d="m 0,0 300.005,0 -150,262.5 L 0,0 z" fill="#4a6876"/>
		</g>
		<g transform="translate(900.0034,262.5)">
			<path d="M 0,0 300.001,0 149.997,262.5 0,0 z" fill="#5e929a"/>
		</g>
		<g transform="translate(1050.0073,525)">
			<path d="M 0,0 -0.007,0 149.997,-262.5 299.99,0 0,0 z" fill="#8b9097"/>
		</g>
		<g transform="translate(1349.9974,524.9995)">
			<path d="M 0,0 0.004,-0.006 0.007,0 0,0 z" fill="#6699ff"/>
		</g>
		<g transform="translate(1349.9976,525)">
			<path d="m 0,0 -149.993,-262.5 299.997,0 L 0.004,-0.007 0,0 z" fill="#b18d94"/>
		</g>
		<g transform="translate(1200.0045,262.5003)">
			<path d="M 0,0 150,-262.5 299.997,0 0,0 z" fill="#6a7181"/>
		</g>
		<g transform="translate(1500.002,262.5003)">
			<path d="M 0,0 150,-262.5 300.002,0 0,0 z" fill="#726f7c"/>
		</g>
		<g transform="translate(1650.0023,0)">
			<path d="m 0,0 300.001,0 -150,262.5 L 0,0 z" fill="#545e6b"/>
		</g>
		<g transform="translate(1500.002,262.5)">
			<path d="M 0,0 300.001,0 150,262.5 0,0 z" fill="#b9898b"/>
		</g>
		<g transform="translate(1650.0063,525)">
			<path d="M 0,0 -0.004,0 149.997,-262.5 299.99,0 0,0 z" fill="#b9908f"/>
		</g>
		<g transform="translate(1949.9966,524.9995)">
			<path d="M 0,0 0.003,-0.005 0.006,0 0,0 z" fill="#6699ff"/>
		</g>
		<g transform="translate(1949.9966,525)">
			<path d="m 0,0 -149.993,-262.5 299.996,0 L 0.003,-0.006 0,0 z" fill="#9a7d80"/>
		</g>
		<g transform="translate(1800.0037,262.5003)">
			<path d="M 0,0 149.999,-262.5 299.996,0 0,0 z" fill="#7f7a80"/>
		</g>
		<g transform="translate(2100,262.5003)">
			<path d="M 0,0 149.998,-262.5 300.002,0 0,0 z" fill="#5d6774"/>
		</g>
		<g transform="translate(2249.9983,0)">
			<path d="M 0,0 300.008,0 150.003,262.5 0,0 z" fill="#303e4c"/>
		</g>
		<g transform="translate(2100,262.5)">
			<path d="M 0,0 300.002,0 149.998,262.5 0,0 z" fill="#6e6874"/>
		</g>
		<g transform="translate(2549.9978,524.9995)">
			<path d="M 0,0 0.004,-0.006 0.008,0 0,0 z" fill="#6699ff"/>
		</g>
		<g transform="translate(2250.0039,525)">
			<path d="M 0,0 -0.006,0 149.998,-262.5 299.994,0 0,0 z" fill="#5a5e6f"/>
		</g>
		<g transform="translate(2549.998,525)">
			<path d="m 0,0 -149.996,-262.5 300,0 L 0.004,-0.007 0,0 z" fill="#3a4f62"/>
		</g>
		<g transform="translate(2400.0017,262.5003)">
			<path d="M 0,0 150.004,-262.5 300,0 0,0 z" fill="#2a495a"/>
		</g>
		<g transform="translate(2700.0022,262.5003)">
			<path d="M 0,0 149.997,-262.5 300.002,0 0,0 z" fill="#204d4f"/>
		</g>
		<g transform="translate(2849.9995,0)">
			<path d="M 0,0 300,0 150.004,262.5 0,0 z" fill="#274245"/>
		</g>
		<g transform="translate(2700.002,262.5)">
			<path d="M 0,0 300.002,0 149.998,262.5 0,0 z" fill="#1d4e52"/>
		</g>
		<g transform="translate(3149.9937,524.9995)">
			<path d="M 0,0 0.003,-0.004 0.006,0 0,0 z" fill="#6699ff"/>
		</g>
		<g transform="translate(2850,525)">
			<path d="M 0,0 150.004,-262.5 299.994,0 0,0 z" fill="#1a5a52"/>
		</g>
		<g transform="translate(3149.9941,525)">
			<path d="m 0,0 -149.99,-262.5 299.994,0 L 0.003,-0.005 0,0 z" fill="#1c5b4f"/>
		</g>
		<g transform="translate(3000.0039,262.5003)">
			<path d="M 0,0 149.996,-262.5 299.994,0 0,0 z" fill="#21524b"/>
		</g>
		<g transform="translate(3299.9983,262.5003)">
			<path d="M 0,0 150.003,-262.5 300,0 0,0 z" fill="#25574a"/>
		</g>
		<g transform="translate(3450.0017,0)">
			<path d="M 0,0 300.002,0 149.996,262.5 0,0 z" fill="#2a5043"/>
		</g>
		<g transform="translate(3299.998,262.5)">
			<path d="M 0,0 300,0 150.004,262.5 0,0 z" fill="#20594b"/>
		</g>
		<g transform="translate(3450.002,525)">
			<path d="M 0,0 149.996,-262.5 299.994,0 0,0 z" fill="#235c51"/>
		</g>
		<g transform="translate(3749.9961,524.9995)">
			<path d="M 0,0 0.004,-0.006 0.007,0 0,0 z" fill="#6699ff"/>
		</g>
		<g transform="translate(3749.9961,525)">
			<path d="m 0,0 -149.998,-262.5 300.002,0 L 0.004,-0.007 0,0 z" fill="#275f54"/>
		</g>
		<g transform="translate(3599.9978,262.5003)">
			<path d="M 0,0 150.006,-262.5 300.002,0 0,0 z" fill="#27594c"/>
		</g>
		<g transform="translate(3899.9995,262.5003)">
			<path d="M 0,0 149.996,-262.5 300,0 0,0 z" fill="#2d5c52"/>
		</g>
		<g transform="translate(4049.9956,0)">
			<path d="m 0,0 150.004,0 0,262.5 L 0,0 z" fill="#245561"/>
		</g>
		<g transform="translate(3899.9995,262.5003)">
			<path d="M 0,0 300,0 149.996,262.499 0,0 z" fill="#2b5f54"/>
		</g>
		<g transform="translate(4050.0042,524.9995)">
			<path d="M 0,0 -0.009,0 149.996,-262.499 149.996,0 0,0 z" fill="#1f4f5b"/>
		</g>
		<g transform="translate(0.0074,787.4998)">
			<path d="M 0,0 149.997,-262.5 300.002,0 0,0 z" fill="#0f828c"/>
		</g>
		<g transform="translate(450.0093,525)">
			<path d="M 0,0 -150,262.5 -300.005,0 -0.003,0 0,0 z" fill="#079ca2"/>
		</g>
		<g transform="translate(0.0074,787.4998)">
			<path d="M 0,0 300.002,0 149.997,262.5 0,0 z" fill="#1b7679"/>
		</g>
		<g transform="translate(450.0062,1050)">
			<path d="M 0,0 -0.004,0 0,-0.007 0.003,0 0,0 z" fill="#6699ff"/>
		</g>
		<g transform="translate(450.002,1050)">
			<path d="M 0,0 -299.998,0 -149.993,-262.5 0,0 z" fill="#07969e"/>
		</g>
		<g transform="translate(450.0059,1049.9932)">
			<path d="m 0,0 -0.004,0.007 -149.993,-262.5 299.998,0 L 0,0 z" fill="#04a6ad"/>
		</g>
		<g transform="translate(300.0088,787.5)">
			<path d="M 0,0 150,-262.5 299.998,0 0,0 z" fill="#06a7ac"/>
		</g>
		<g transform="translate(0.0074,1837.502)">
			<path d="M 0,0 149.997,-262.5 300.002,0 0,0 z" fill="#695e4e"/>
		</g>
		<g transform="translate(450.0093,1575.002)">
			<path d="M 0,0 -150,262.5 -300.005,0 -0.003,0 0,0 z" fill="#877150"/>
		</g>
		<g transform="translate(0.0074,1837.502)">
			<path d="M 0,0 300.002,0 149.997,262.496 0,0 z" fill="#635147"/>
		</g>
		<g transform="translate(450.0062,2099.9978)">
			<path d="M 0,0 -0.004,0 0,-0.006 0.003,0 0,0 z" fill="#6699ff"/>
		</g>
		<g transform="translate(450.002,2099.998)">
			<path d="M 0,0 -299.998,0 -149.993,-262.496 0,0 z" fill="#b7643c"/>
		</g>
		<g transform="translate(450.0059,2099.9912)">
			<path d="m 0,0 -0.004,0.007 -149.993,-262.496 299.998,0 L 0,0 z" fill="#d07038"/>
		</g>
		<g transform="translate(300.0088,1837.502)">
			<path d="M 0,0 150,-262.5 299.998,0 0,0 z" fill="#c78245"/>
		</g>
		<g transform="translate(0.0074,2887.502)">
			<path d="M 0,0 149.997,-262.505 300.002,0 0,0 z" fill="#432d3a"/>
		</g>
		<g transform="translate(450.0093,2624.998)">
			<path d="M 0,0 -150,262.504 -300.005,0 -0.003,0 0,0 z" fill="#ac5437"/>
		</g>
		<g transform="translate(0.0074,2887.502)">
			<path d="M 0,0 300.002,0 149.997,262.497 0,0 z" fill="#553037"/>
		</g>
		<g transform="translate(450.002,3149.999)">
			<path d="M 0,0 -299.998,0 -149.993,-262.497 0,0 z" fill="#693736"/>
		</g>
		<g transform="translate(450.0062,3149.999)">
			<path d="M 0,0 -0.004,0 0,-0.007 0.003,0 0,0 z" fill="#6699ff"/>
		</g>
		<g transform="translate(450.0059,3149.9922)">
			<path d="m 0,0 -0.004,0.007 -149.993,-262.497 299.998,0 L 0,0 z" fill="#8f4837"/>
		</g>
		<g transform="translate(300.0088,2887.502)">
			<path d="M 0,0 150,-262.504 299.998,0 0,0 z" fill="#bd6037"/>
		</g>
		<g transform="translate(0.0074,3937.4946)">
			<path d="M 0,0 149.997,-262.496 300.002,0 0,0 z" fill="#342537"/>
		</g>
		<g transform="translate(450.0093,3674.999)">
			<path d="M 0,0 -150,262.496 -300.005,0 -0.003,0 0,0 z" fill="#482f3b"/>
		</g>
		<g transform="translate(150.0045,4200)">
			<path d="m 0,0 -149.997,-262.505 300.002,0 L 0,0 z" fill="#303e4c"/>
		</g>
		<g transform="translate(450.002,4200)">
			<path d="M 0,0 0.004,-0.007 0.007,0 0,0 z" fill="#6699ff"/>
		</g>
		<g transform="translate(150.0045,4200)">
			<path d="M 0,0 150.005,-262.505 299.997,0 0,0 z" fill="#352c3f"/>
		</g>
		<g transform="translate(450.002,4200)">
			<path d="m 0,0 -149.993,-262.505 299.997,0 L 0.004,-0.007 0,0 z" fill="#423140"/>
		</g>
		<g transform="translate(600.0068,3937.4951)">
			<path d="m 0,0 -299.998,0 150,-262.496 L 0,0 z" fill="#613a40"/>
		</g>
		<g transform="translate(600.0068,787.5)">
			<path d="M 0,0 150,-262.5 299.997,0 0,0 z" fill="#09adb3"/>
		</g>
		<g transform="translate(750.0068,525)">
			<path d="M 0,0 299.994,0 300,0 149.997,262.5 0,0 z" fill="#459ba4"/>
		</g>
		<g transform="translate(750.0068,1050)">
			<path d="m 0,0 -150,-262.5 299.997,0 L 0,0 z" fill="#289a9d"/>
		</g>
		<g transform="translate(1050.0005,1050)">
			<path d="M 0,0 -299.994,0 -149.997,-262.5 0,0 z" fill="#5c7a83"/>
		</g>
		<g transform="translate(1050,1050)">
			<path d="M 0,0 0.004,-0.006 0.007,0 0,0 z" fill="#6699ff"/>
		</g>
		<g transform="translate(1050.0005,1050)">
			<path d="m 0,0 -149.997,-262.5 300.001,0 L 0.003,-0.006 0,0 z" fill="#826c85"/>
		</g>
		<g transform="translate(900.0034,787.5)">
			<path d="M 0,0 150.004,-262.5 300.001,0 0,0 z" fill="#798698"/>
		</g>
		<g transform="translate(600.0068,1837.502)">
			<path d="M 0,0 150,-262.5 299.997,0 0,0 z" fill="#ce7c3f"/>
		</g>
		<g transform="translate(1050.0073,1575.002)">
			<path d="M 0,0 -150.004,262.5 -300,0 -0.007,0 0,0 z" fill="#c06f45"/>
		</g>
		<g transform="translate(750.0068,2099.998)">
			<path d="m 0,0 -150,-262.496 299.997,0 L 0,0 z" fill="#db7d3d"/>
		</g>
		<g transform="translate(1050.0005,2099.998)">
			<path d="M 0,0 -299.994,0 -149.997,-262.496 0,0 z" fill="#d87535"/>
		</g>
		<g transform="translate(1050,2099.9978)">
			<path d="M 0,0 0.004,-0.006 0.007,0 0,0 z" fill="#6699ff"/>
		</g>
		<g transform="translate(1050.0039,2099.9922)">
			<path d="M 0,0 -0.003,0.006 -150,-262.49 l 300,0 L 0,0 z" fill="#d67138"/>
		</g>
		<g transform="translate(900.0034,1837.502)">
			<path d="M 0,0 150.004,-262.5 300.001,0 0,0 z" fill="#d37754"/>
		</g>
		<g transform="translate(600.0068,2887.502)">
			<path d="M 0,0 150,-262.504 299.997,0 0,0 z" fill="#d6883c"/>
		</g>
		<g transform="translate(1050.0073,2624.998)">
			<path d="M 0,0 -150.004,262.504 -300,0 -0.007,0 0,0 z" fill="#dd973f"/>
		</g>
		<g transform="translate(750.0068,3149.999)">
			<path d="m 0,0 -150,-262.497 299.997,0 L 0,0 z" fill="#c46f3c"/>
		</g>
		<g transform="translate(1050,3149.999)">
			<path d="M 0,0 0.004,-0.006 0.007,0 0,0 z" fill="#6699ff"/>
		</g>
		<g transform="translate(1050.0005,3149.999)">
			<path d="M 0,0 -299.994,0 -149.997,-262.497 0,0 z" fill="#d08a42"/>
		</g>
		<g transform="translate(1050.0039,3149.9932)">
			<path d="M 0,0 -0.003,0.006 -150,-262.491 l 300,0 L 0,0 z" fill="#d59944"/>
		</g>
		<g transform="translate(900.0034,2887.502)">
			<path d="M 0,0 150.004,-262.504 300.001,0 0,0 z" fill="#dfa044"/>
		</g>
		<g transform="translate(900.0034,3937.4951)">
			<path d="m 0,0 -299.997,0 150,-262.496 L 0,0 z" fill="#835b42"/>
		</g>
		<g transform="translate(1050.0005,3674.999)">
			<path d="M 0,0 0.007,0 -149.997,262.496 -299.994,0 0,0 z" fill="#ae8a44"/>
		</g>
		<g transform="translate(750.0068,4200)">
			<path d="m 0,0 -150,-262.505 299.996,0 L 0,0 z" fill="#5a513f"/>
		</g>
		<g transform="translate(750.0068,4200)">
			<path d="M 0,0 149.996,-262.505 299.993,0 0,0 z" fill="#536053"/>
		</g>
		<g transform="translate(1050,4200)">
			<path d="M 0,0 0.004,-0.006 0.007,0 0,0 z" fill="#77a4ff"/>
		</g>
		<g transform="translate(1050,4200)">
			<path d="m 0,0 -149.997,-262.505 300.002,0 L 0.004,-0.006 0,0 z" fill="#747557"/>
		</g>
		<g transform="translate(1200.0044,3937.4951)">
			<path d="M 0,0 -300.001,0 -149.997,-262.496 0,0 z" fill="#ad9646"/>
		</g>
		<g transform="translate(1200.0044,787.5)">
			<path d="M 0,0 150.001,-262.5 300.001,0 0,0 z" fill="#d27b8a"/>
		</g>
		<g transform="translate(1350.0054,525)">
			<path d="M 0,0 299.997,0 300.001,0 150,262.5 0,0 z" fill="#e17c8b"/>
		</g>
		<g transform="translate(1200.0044,787.5)">
			<path d="m 0,0 300.001,0 -150,262.5 L 0,0 z" fill="#ce5772"/>
		</g>
		<g transform="translate(1650.0023,1050)">
			<path d="M 0,0 -0.004,0 0,-0.007 0.004,0 0,0 z" fill="#6699ff"/>
		</g>
		<g transform="translate(1350.0054,1050)">
			<path d="M 0,0 150,-262.5 299.993,0 0,0 z" fill="#e23a57"/>
		</g>
		<g transform="translate(1649.9985,1050)">
			<path d="m 0,0 -149.993,-262.5 300.001,0 L 0.004,-0.007 0,0 z" fill="#e7536b"/>
		</g>
		<g transform="translate(1500.0054,787.5)">
			<path d="M 0,0 150.001,-262.5 300.001,0 0,0 z" fill="#e46174"/>
		</g>
		<g transform="translate(1200.0044,1837.502)">
			<path d="M 0,0 150.001,-262.5 300.001,0 0,0 z" fill="#e06e55"/>
		</g>
		<g transform="translate(1650.0063,1575.002)">
			<path d="M 0,0 -150.001,262.5 -300.001,0 -0.004,0 0,0 z" fill="#e65041"/>
		</g>
		<g transform="translate(1350.0054,2099.998)">
			<path d="m 0,0 -150.001,-262.496 300.001,0 L 0,0 z" fill="#df8f3d"/>
		</g>
		<g transform="translate(1650.0023,2099.9978)">
			<path d="M 0,0 -0.004,0 0,-0.006 0.004,0 0,0 z" fill="#6699ff"/>
		</g>
		<g transform="translate(1649.9985,2099.998)">
			<path d="m 0,0 -299.993,0 150,-262.496 L 0,0 z" fill="#e2a241"/>
		</g>
		<g transform="translate(1650.0024,2099.9912)">
			<path d="m 0,0 -0.004,0.007 -149.993,-262.496 300.001,0 L 0,0 z" fill="#e6aa42"/>
		</g>
		<g transform="translate(1500.0054,1837.502)">
			<path d="M 0,0 150.001,-262.5 300.001,0 0,0 z" fill="#ea7d57"/>
		</g>
		<g transform="translate(1200.0044,2887.502)">
			<path d="M 0,0 150.001,-262.504 300.001,0 0,0 z" fill="#d9af48"/>
		</g>
		<g transform="translate(1650.0063,2624.998)">
			<path d="M 0,0 -150.001,262.504 -300.001,0 -0.004,0 0,0 z" fill="#d5b84a"/>
		</g>
		<g transform="translate(1500.0054,2887.502)">
			<path d="M 0,0 -150,262.497 -300.001,0 0,0 z" fill="#d5b74c"/>
		</g>
		<g transform="translate(1650.0023,3149.999)">
			<path d="M 0,0 -0.004,0 0,-0.007 0.004,0 0,0 z" fill="#6699ff"/>
		</g>
		<g transform="translate(1649.9985,3149.999)">
			<path d="m 0,0 -299.993,0 150,-262.497 L 0,0 z" fill="#d6bf61"/>
		</g>
		<g transform="translate(1800.0063,2887.502)">
			<path d="m 0,0 -150.004,262.49 -0.004,0.007 L -300.001,0 0,0 z" fill="#cfbf56"/>
		</g>
		<g transform="translate(1800.0063,2887.502)">
			<path d="M 0,0 -300.001,0 -150,-262.504 0,0 z" fill="#ccb64e"/>
		</g>
		<g transform="translate(1500.0054,3937.4951)">
			<path d="M 0,0 -300.001,0 -150,-262.496 0,0 z" fill="#a39450"/>
		</g>
		<g transform="translate(1650.0024,3674.999)">
			<path d="M 0,0 0.004,0 -149.997,262.496 -299.997,0 0,0 z" fill="#aba25d"/>
		</g>
		<g transform="translate(1350.0049,4200)">
			<path d="m 0,0 -150,-262.505 300,0 L 0,0 z" fill="#7f8562"/>
		</g>
		<g transform="translate(1649.998,4200)">
			<path d="M 0,0 0.004,-0.007 0.008,0 0,0 z" fill="#77a4ff"/>
		</g>
		<g transform="translate(1350.0049,4200)">
			<path d="M 0,0 150,-262.505 299.993,0 0,0 z" fill="#4e6b61"/>
		</g>
		<g transform="translate(1649.998,4200)">
			<path d="m 0,0 -149.993,-262.505 300.001,0 L 0.004,-0.007 0,0 z" fill="#5f7a6f"/>
		</g>
		<g transform="translate(1800.0063,3937.4951)">
			<path d="M 0,0 -300.001,0 -150,-262.496 0,0 z" fill="#828967"/>
		</g>
		<g transform="translate(1800.0063,787.5)">
			<path d="M 0,0 149.997,-262.5 300,0 0,0 z" fill="#c26173"/>
		</g>
		<g transform="translate(1950.0034,525)">
			<path d="M 0,0 299.995,0 300,0 150.003,262.5 0,0 z" fill="#9b6e7b"/>
		</g>
		<g transform="translate(1800.0063,787.5)">
			<path d="M 0,0 300,0 149.997,262.5 0,0 z" fill="#c74a62"/>
		</g>
		<g transform="translate(1950.0034,1050)">
			<path d="M 0,0 150.003,-262.5 299.995,0 0,0 z" fill="#c03d59"/>
		</g>
		<g transform="translate(2249.9983,1050)">
			<path d="M 0,0 0.002,-0.005 0.005,0 0,0 z" fill="#6699ff"/>
		</g>
		<g transform="translate(2249.998,1050)">
			<path d="m 0,0 -149.991,-262.5 299.995,0 L 0.003,-0.005 0,0 z" fill="#944f64"/>
		</g>
		<g transform="translate(2100.0068,787.5)">
			<path d="M 0,0 149.997,-262.5 299.995,0 0,0 z" fill="#8b5c72"/>
		</g>
		<g transform="translate(1800.0063,1837.502)">
			<path d="M 0,0 149.997,-262.5 300,0 0,0 z" fill="#e18159"/>
		</g>
		<g transform="translate(1950.0034,1575.002)">
			<path d="M 0,0 299.995,0 300,0 150.003,262.5 0,0 z" fill="#c36549"/>
		</g>
		<g transform="translate(1950.0034,2099.998)">
			<path d="m 0,0 -149.997,-262.496 300,0 L 0,0 z" fill="#e09c46"/>
		</g>
		<g transform="translate(2249.998,2099.998)">
			<path d="M 0,0 -299.995,0 -149.991,-262.496 0,0 z" fill="#d6b749"/>
		</g>
		<g transform="translate(2249.9983,2099.9978)">
			<path d="M 0,0 0.002,-0.005 0.005,0 0,0 z" fill="#6699ff"/>
		</g>
		<g transform="translate(2249.998,2099.998)">
			<path d="m 0,0 -149.991,-262.496 299.995,0 L 0.003,-0.005 0,0 z" fill="#b7ac58"/>
		</g>
		<g transform="translate(2250.0039,1575.002)">
			<path d="m 0,0 149.998,262.5 -299.995,0 L 0,0 z" fill="#b78964"/>
		</g>
		<g transform="translate(2100.0068,2887.502)">
			<path d="M 0,0 -300,0 -150.003,-262.504 0,0 z" fill="#ccc45b"/>
		</g>
		<g transform="translate(2249.998,2624.998)">
			<path d="M 0,0 0.006,0 -149.991,262.504 -299.995,0 0,0 z" fill="#bec060"/>
		</g>
		<g transform="translate(2100.0068,2887.502)">
			<path d="M 0,0 -150.003,262.497 -300,0 0,0 z" fill="#c5bf6a"/>
		</g>
		<g transform="translate(2249.9983,3149.999)">
			<path d="M 0,0 0.002,-0.005 0.005,0 0,0 z" fill="#6699ff"/>
		</g>
		<g transform="translate(2249.998,3149.999)">
			<path d="M 0,0 -299.995,0 -149.991,-262.497 0,0 z" fill="#b8b375"/>
		</g>
		<g transform="translate(2400.002,2887.502)">
			<path d="m 0,0 -150.001,262.492 -0.003,0.005 L -299.995,0 0,0 z" fill="#a4a972"/>
		</g>
		<g transform="translate(2400.002,2887.502)">
			<path d="M 0,0 -299.995,0 -149.998,-262.504 0,0 z" fill="#adb470"/>
		</g>
		<g transform="translate(2100.0068,3937.4951)">
			<path d="M 0,0 -300,0 -150.003,-262.496 0,0 z" fill="#879480"/>
		</g>
		<g transform="translate(2249.998,3674.999)">
			<path d="M 0,0 0.006,0 -149.991,262.496 -299.995,0 0,0 z" fill="#879582"/>
		</g>
		<g transform="translate(1950.0029,4200)">
			<path d="m 0,0 -149.997,-262.505 300,0 L 0,0 z" fill="#5b7971"/>
		</g>
		<g transform="translate(2249.9983,4200)">
			<path d="M 0,0 0.002,-0.005 0.005,0 0,0 z" fill="#6699ff"/>
		</g>
		<g transform="translate(1950.0029,4200)">
			<path d="M 0,0 150.003,-262.505 299.995,0 0,0 z" fill="#4a7169"/>
		</g>
		<g transform="translate(2249.9983,4200)">
			<path d="m 0,0 -149.992,-262.505 299.995,0 L 0.002,-0.005 0,0 z" fill="#597170"/>
		</g>
		<g transform="translate(2400.002,3937.4951)">
			<path d="M 0,0 -299.995,0 -149.998,-262.496 0,0 z" fill="#5e716e"/>
		</g>
		<g transform="translate(2400.002,787.5)">
			<path d="M 0,0 150.004,-262.5 300,0 0,0 z" fill="#345f69"/>
		</g>
		<g transform="translate(2550.0059,525)">
			<path d="M 0,0 299.994,0 149.996,262.5 0,0 z" fill="#20615d"/>
		</g>
		<g transform="translate(2400.002,787.5)">
			<path d="M 0,0 300,0 150.004,262.5 0,0 z" fill="#545a60"/>
		</g>
		<g transform="translate(2550.0059,1050)">
			<path d="M 0,0 149.996,-262.5 299.994,0 0,0 z" fill="#2a6456"/>
		</g>
		<g transform="translate(2700.002,787.5)">
			<path d="M 0,0 300.002,0 149.998,262.5 0,0 z" fill="#226856"/>
		</g>
		<g transform="translate(2700.002,787.5)">
			<path d="M 0,0 149.998,-262.5 300.002,0 0,0 z" fill="#1b6459"/>
		</g>
		<g transform="translate(2550.0059,1575.002)">
			<path d="m 0,0 149.996,262.5 -300,0 L 0,0 z" fill="#568261"/>
		</g>
		<g transform="translate(2850,1575.002)">
			<path d="M 0,0 -149.998,262.5 -299.994,0 0,0 z" fill="#2d8d71"/>
		</g>
		<g transform="translate(2400.002,1837.502)">
			<path d="M 0,0 300,0 150.004,262.496 0,0 z" fill="#7da56d"/>
		</g>
		<g transform="translate(2700.002,1837.502)">
			<path d="m 0,0 149.998,262.496 -299.994,0 L 0,0 z" fill="#50bb8c"/>
		</g>
		<g transform="translate(2700.002,1837.502)">
			<path d="M 0,0 300.002,0 149.998,262.496 0,0 z" fill="#1faa93"/>
		</g>
		<g transform="translate(2850,1575.002)">
			<path d="m 0,0 150.004,262.5 -300.002,0 L 0,0 z" fill="#199988"/>
		</g>
		<g transform="translate(2700.002,2887.502)">
			<path d="M 0,0 -300,0 -149.996,-262.504 0,0 z" fill="#92aa76"/>
		</g>
		<g transform="translate(2850,2624.998)">
			<path d="M 0,0 -149.998,262.504 -299.994,0 0,0 z" fill="#68a77e"/>
		</g>
		<g transform="translate(2700.002,2887.502)">
			<path d="M 0,0 -149.996,262.497 -300,0 0,0 z" fill="#6b9272"/>
		</g>
		<g transform="translate(2850,3149.999)">
			<path d="M 0,0 -299.994,0 -149.998,-262.497 0,0 z" fill="#5c8c6f"/>
		</g>
		<g transform="translate(3000.0039,2887.502)">
			<path d="M 0,0 -150.004,262.497 -300.002,0 0,0 z" fill="#2e7368"/>
		</g>
		<g transform="translate(2850,2624.998)">
			<path d="m 0,0 150.004,262.504 -300.002,0 L 0,0 z" fill="#318c77"/>
		</g>
		<g transform="translate(2700.002,3937.4951)">
			<path d="M 0,0 -300,0 -149.996,-262.496 0,0 z" fill="#3a4851"/>
		</g>
		<g transform="translate(2850,3674.999)">
			<path d="M 0,0 -149.998,262.496 -299.994,0 0,0 z" fill="#39374a"/>
		</g>
		<g transform="translate(2550.0061,4200)">
			<path d="m 0,0 -150.004,-262.505 300,0 L 0,0 z" fill="#31454f"/>
		</g>
		<g transform="translate(2550.0061,4200)">
			<path d="M 0,0 149.996,-262.505 299.993,0 0,0 z" fill="#2b4a53"/>
		</g>
		<g transform="translate(2849.9995,4200)">
			<path d="m 0,0 -149.997,-262.505 300.001,0 L 0,0 z" fill="#29444f"/>
		</g>
		<g transform="translate(3000.0039,3937.4951)">
			<path d="M 0,0 -300.002,0 -150.004,-262.496 0,0 z" fill="#443b4e"/>
		</g>
		<g transform="translate(3000.0039,787.5)">
			<path d="M 0,0 149.996,-262.5 299.994,0 0,0 z" fill="#1e6e5b"/>
		</g>
		<g transform="translate(3150,525)">
			<path d="M 0,0 300.002,0 149.998,262.5 0,0 z" fill="#1c6452"/>
		</g>
		<g transform="translate(3000.0039,787.5)">
			<path d="M 0,0 299.994,0 149.996,262.5 0,0 z" fill="#226e57"/>
		</g>
		<g transform="translate(3449.9944,1050)">
			<path d="M 0,0 0.003,-0.007 0.007,0 0,0 z" fill="#6699ff"/>
		</g>
		<g transform="translate(3299.998,787.5)">
			<path d="m 0,0 149.996,262.5 -299.994,0 L 0,0 z" fill="#236b58"/>
		</g>
		<g transform="translate(3449.9941,1050)">
			<path d="m 0,0 -149.996,-262.5 300,0 L 0.004,-0.007 0,0 z" fill="#276d5c"/>
		</g>
		<g transform="translate(3450.002,525)">
			<path d="m 0,0 149.996,262.5 -300,0 L 0,0 z" fill="#206858"/>
		</g>
		<g transform="translate(3150,1575.002)">
			<path d="m 0,0 149.998,262.5 -299.994,0 L 0,0 z" fill="#119a91"/>
		</g>
		<g transform="translate(3450.002,1575.002)">
			<path d="M 0,0 -150.004,262.5 -300.002,0 0,0 z" fill="#179187"/>
		</g>
		<g transform="translate(3000.0039,1837.502)">
			<path d="M 0,0 299.994,0 149.996,262.496 0,0 z" fill="#09a5a1"/>
		</g>
		<g transform="translate(3299.998,1837.502)">
			<path d="m 0,0 149.996,262.496 -299.994,0 L 0,0 z" fill="#05a9a9"/>
		</g>
		<g transform="translate(3449.9944,2099.9978)">
			<path d="M 0,0 0.003,-0.006 0.007,0 0,0 z" fill="#6699ff"/>
		</g>
		<g transform="translate(3449.9941,2099.998)">
			<path d="m 0,0 -149.996,-262.496 300,0 L 0.004,-0.007 0,0 z" fill="#08a4a5"/>
		</g>
		<g transform="translate(3450.002,1575.002)">
			<path d="m 0,0 149.996,262.5 -300,0 L 0,0 z" fill="#109892"/>
		</g>
		<g transform="translate(3150,2624.998)">
			<path d="m 0,0 149.998,262.504 -299.994,0 L 0,0 z" fill="#128c83"/>
		</g>
		<g transform="translate(3450.002,2624.998)">
			<path d="M 0,0 -150.004,262.504 -300.002,0 0,0 z" fill="#0d8088"/>
		</g>
		<g transform="translate(3000.0039,2887.502)">
			<path d="M 0,0 299.994,0 149.996,262.497 0,0 z" fill="#16616d"/>
		</g>
		<g transform="translate(3299.998,2887.502)">
			<path d="m 0,0 149.996,262.497 -299.994,0 L 0,0 z" fill="#194d64"/>
		</g>
		<g transform="translate(3449.9944,3149.999)">
			<path d="M 0,0 0.003,-0.007 0.007,0 0,0 z" fill="#6699ff"/>
		</g>
		<g transform="translate(3449.9941,3149.999)">
			<path d="m 0,0 -149.996,-262.497 300,0 -150,262.49 L 0,0 z" fill="#174f6a"/>
		</g>
		<g transform="translate(3450.002,2624.998)">
			<path d="m 0,0 149.996,262.504 -300,0 L 0,0 z" fill="#12617a"/>
		</g>
		<g transform="translate(3299.998,3937.4951)">
			<path d="M 0,0 -299.994,0 -149.998,-262.496 0,0 z" fill="#232e44"/>
		</g>
		<g transform="translate(3450.002,3674.999)">
			<path d="M 0,0 -150.004,262.496 -300.002,0 0,0 z" fill="#22263f"/>
		</g>
		<g transform="translate(3150,4200)">
			<path d="m 0,0 -149.996,-262.505 299.994,0 L 0,0 z" fill="#223d4c"/>
		</g>
		<g transform="translate(3150,4200)">
			<path d="M 0,0 149.998,-262.505 299.994,0 0,0 z" fill="#1d4653"/>
		</g>
		<g transform="translate(3449.9944,4200)">
			<path d="M 0,0 0.003,-0.007 0.007,0 0,0 z" fill="#6699ff"/>
		</g>
		<g transform="translate(3449.9944,4200)">
			<path d="m 0,0 -149.996,-262.505 299.999,0 L 0.003,-0.007 0,0 z" fill="#1d4150"/>
		</g>
		<g transform="translate(3599.998,3937.4951)">
			<path d="M 0,0 -300,0 -149.996,-262.496 0,0 z" fill="#142230"/>
		</g>
		<g transform="translate(3750.0039,525)">
			<path d="m 0,0 149.996,262.5 -300.002,0 L 0,0 z" fill="#27675a"/>
		</g>
		<g transform="translate(4049.9961,525)">
			<path d="M 0,0 0.008,0 -149.996,262.5 -299.992,0 0,0 z" fill="#2d6e5f"/>
		</g>
		<g transform="translate(3599.998,787.5)">
			<path d="M 0,0 300.002,0 150.006,262.5 0,0 z" fill="#2a6a5a"/>
		</g>
		<g transform="translate(4049.9956,1050)">
			<path d="M 0,0 0.004,-0.007 0.009,0 0,0 z" fill="#6699ff"/>
		</g>
		<g transform="translate(3900,787.5)">
			<path d="m 0,0 149.996,262.5 -299.992,0 L 0,0 z" fill="#2e6a58"/>
		</g>
		<g transform="translate(3899.9995,787.4998)">
			<path d="M 0,0 300,0 150,262.493 149.996,262.5 0,0 z" fill="#2e6556"/>
		</g>
		<g transform="translate(3899.9995,787.4998)">
			<path d="M 0,0 150.005,-262.5 300,0 0,0 z" fill="#2b6557"/>
		</g>
		<g transform="translate(3750.0039,1575.002)">
			<path d="m 0,0 149.996,262.5 -300.002,0 L 0,0 z" fill="#167d84"/>
		</g>
		<g transform="translate(4049.9961,1575.002)">
			<path d="M 0,0 0.008,0 -149.996,262.5 -299.992,0 0,0 z" fill="#1d7273"/>
		</g>
		<g transform="translate(3599.998,1837.502)">
			<path d="M 0,0 300.002,0 150.006,262.496 0,0 z" fill="#0d8b96"/>
		</g>
		<g transform="translate(3900,1837.502)">
			<path d="m 0,0 149.996,262.496 -299.992,0 L 0,0 z" fill="#107a8e"/>
		</g>
		<g transform="translate(4049.9956,2099.9978)">
			<path d="M 0,0 0.004,-0.006 0.009,0 0,0 z" fill="#6699ff"/>
		</g>
		<g transform="translate(3899.9995,1837.502)">
			<path d="M 0,0 300,0 150,262.49 149.996,262.496 0,0 z" fill="#156e81"/>
		</g>
		<g transform="translate(3899.9995,1837.502)">
			<path d="M 0,0 150.005,-262.5 300,0 0,0 z" fill="#22616a"/>
		</g>
		<g transform="translate(3750.0039,2624.998)">
			<path d="m 0,0 149.996,262.504 -300.002,0 L 0,0 z" fill="#174663"/>
		</g>
		<g transform="translate(4049.9961,2624.998)">
			<path d="M 0,0 0.008,0 -149.996,262.504 -299.992,0 0,0 z" fill="#17405b"/>
		</g>
		<g transform="translate(3599.998,2887.502)">
			<path d="M 0,0 300.002,0 150.006,262.497 0,0 z" fill="#193754"/>
		</g>
		<g transform="translate(3900,2887.502)">
			<path d="m 0,0 149.996,262.497 -299.992,0 L 0,0 z" fill="#1a2a44"/>
		</g>
		<g transform="translate(4049.9956,3149.999)">
			<path d="M 0,0 0.004,-0.007 0.009,0 0,0 z" fill="#6699ff"/>
		</g>
		<g transform="translate(3899.9995,2887.502)">
			<path d="M 0,0 300,0 150,262.49 149.996,262.497 0,0 z" fill="#193551"/>
		</g>
		<g transform="translate(3899.9995,2887.502)">
			<path d="M 0,0 150.005,-262.505 300,0 0,0 z" fill="#19364b"/>
		</g>
		<g transform="translate(3900,3937.4951)">
			<path d="M 0,0 -300.002,0 -149.996,-262.496 0,0 z" fill="#1e213c"/>
		</g>
		<g transform="translate(4049.9961,3674.999)">
			<path d="M 0,0 0.008,0 -149.996,262.496 -299.992,0 0,0 z" fill="#142230"/>
		</g>
		<g transform="translate(3750.0034,4200)">
			<path d="m 0,0 -150.006,-262.505 300.002,0 L 0,0 z" fill="#16334b"/>
		</g>
		<g transform="translate(3750.0034,4200)">
			<path d="M 0,0 149.996,-262.505 299.992,0 0,0 z" fill="#152f45"/>
		</g>
		<g transform="translate(4049.9956,4200)">
			<path d="M 0,0 0.004,-0.007 0.009,0 0,0 z" fill="#6699ff"/>
		</g>
		<g transform="translate(4049.9956,4200)">
			<path d="m 0,0 -149.996,-262.505 300,0 L 0.004,-0.007 0,0 z" fill="#14273f"/>
		</g>
		<g transform="translate(3899.9995,3937.4946)">
			<path d="M 0,0 150.005,-262.496 300,0 0,0 z" fill="#203749"/>
		</g>
		<g transform="translate(0,1312.5013)">
			<path d="M 0,0 0,-0.007 0.007,0 0,0 z" fill="#ffff00"/>
		</g>
		<g transform="translate(0,1312.494)">
			<path d="m 0,0 0,-262.494 150.005,0 L 0.007,0.007 0,0 z" fill="#2d5b57"/>
		</g>
		<g transform="translate(0,1312.5013)">
			<path d="M 0,0 0.007,0 0,0.007 0,0 z" fill="#9900cc"/>
		</g>
		<g transform="translate(0,1575.0016)">
			<path d="M 0,0 0,-262.493 0.007,-262.5 150,0 0,0 z" fill="#2e4951"/>
		</g>
		<g transform="translate(150.0003,1575.0016)">
			<path d="M 0,0 0.002,-0.003 0.004,0 0,0 z" fill="#6699ff"/>
		</g>
		<g transform="translate(0.0074,1312.5013)">
			<path d="M 0,0 299.999,0 149.995,262.497 149.993,262.5 0,0 z" fill="#456860"/>
		</g>
		<g transform="translate(0.0074,1312.5013)">
			<path d="M 0,0 149.997,-262.501 299.999,0 0,0 z" fill="#2f6f6b"/>
		</g>
		<g transform="translate(0,2362.5015)">
			<path d="M 0,0 0,-0.008 0.007,0 0,0 z" fill="#ffff00"/>
		</g>
		<g transform="translate(0,2362.4939)">
			<path d="m 0,0 0,-262.496 150.005,0 L 0.007,0.008 0,0 z" fill="#20525a"/>
		</g>
		<g transform="translate(0,2362.5015)">
			<path d="M 0,0 0.007,0 0,0.007 0,0 z" fill="#9900cc"/>
		</g>
		<g transform="translate(150.0003,2624.9973)">
			<path d="M 0,0 0.002,-0.003 0.004,0 0,0 z" fill="#6699ff"/>
		</g>
		<g transform="translate(0,2624.9973)">
			<path d="M 0,0 0,-262.489 0.007,-262.496 150,0 0,0 z" fill="#1c4151"/>
		</g>
		<g transform="translate(0.0074,2362.5015)">
			<path d="M 0,0 299.999,0 149.995,262.493 149.993,262.496 0,0 z" fill="#603b3a"/>
		</g>
		<g transform="translate(0.0074,2362.5015)">
			<path d="M 0,0 149.997,-262.504 299.999,0 0,0 z" fill="#554344"/>
		</g>
		<g transform="translate(0,3412.5024)">
			<path d="M 0,0 0,-0.007 0.007,0 0,0 z" fill="#ffff00"/>
		</g>
		<g transform="translate(0,3412.4951)">
			<path d="m 0,0 0,-262.496 150.005,0 L 0.007,0.007 0,0 z" fill="#17243e"/>
		</g>
		<g transform="translate(0,3674.9985)">
			<path d="m 0,0 0,-262.496 0.007,0 L 150,0 0,0 z" fill="#2f1f33"/>
		</g>
		<g transform="translate(150.0003,3674.9985)">
			<path d="M 0,0 0.002,-0.002 0.004,0 0,0 z" fill="#6699ff"/>
		</g>
		<g transform="translate(0.0074,3412.5024)">
			<path d="M 0,0 299.999,0 149.995,262.494 149.993,262.496 0,0 z" fill="#332133"/>
		</g>
		<g transform="translate(0.0074,3412.5024)">
			<path d="M 0,0 149.997,-262.503 299.999,0 0,0 z" fill="#4d2d36"/>
		</g>
		<g transform="translate(300.0059,1312.501)">
			<path d="M 0,0 150,-262.501 299.997,0 0,0 z" fill="#589073"/>
		</g>
		<g transform="translate(750.0068,1050)">
			<path d="M 0,0 -150.004,262.501 -300.001,0 -299.998,0 0,0 z" fill="#429d86"/>
		</g>
		<g transform="translate(450.0059,1575.002)">
			<path d="m 0,0 -150,-262.501 299.997,0 L 0,0 z" fill="#7c9065"/>
		</g>
		<g transform="translate(750.0005,1575.0016)">
			<path d="M 0,0 0.002,-0.005 0.006,0 0,0 z" fill="#6699ff"/>
		</g>
		<g transform="translate(750,1575.002)">
			<path d="m 0,0 -299.991,0 -0.003,0 149.996,-262.501 L 0,0 z" fill="#a08b5a"/>
		</g>
		<g transform="translate(750.0029,1574.9961)">
			<path d="M 0,0 -0.003,0.006 -150,-262.495 l 300,0 L 0,0 z" fill="#947d5f"/>
		</g>
		<g transform="translate(600.0024,1312.501)">
			<path d="M 0,0 150.004,-262.501 300.001,0 0,0 z" fill="#748d70"/>
		</g>
		<g transform="translate(300.0059,2362.502)">
			<path d="M 0,0 150,-262.504 299.997,0 0,0 z" fill="#d36a36"/>
		</g>
		<g transform="translate(750.0068,2099.998)">
			<path d="M 0,0 -150.004,262.504 -300.001,0 -299.998,0 0,0 z" fill="#e5894e"/>
		</g>
		<g transform="translate(450.0059,2624.998)">
			<path d="m 0,0 -150,-262.496 299.997,0 L 0,0 z" fill="#b35738"/>
		</g>
		<g transform="translate(750.0005,2624.9973)">
			<path d="M 0,0 0.002,-0.005 0.006,0 0,0 z" fill="#6699ff"/>
		</g>
		<g transform="translate(750,2624.998)">
			<path d="m 0,0 -299.991,0 -0.003,0 149.996,-262.496 L 0,0 z" fill="#cf6636"/>
		</g>
		<g transform="translate(750.0029,2624.9922)">
			<path d="M 0,0 -0.003,0.006 -150,-262.49 l 300,0 L 0,0 z" fill="#da7535"/>
		</g>
		<g transform="translate(600.0024,2362.502)">
			<path d="M 0,0 150.004,-262.504 300.001,0 0,0 z" fill="#de7f35"/>
		</g>
		<g transform="translate(300.0059,3412.5029)">
			<path d="M 0,0 150,-262.504 299.997,0 0,0 z" fill="#824239"/>
		</g>
		<g transform="translate(750.0068,3149.999)">
			<path d="M 0,0 -150.004,262.504 -300.001,0 -299.998,0 0,0 z" fill="#b86740"/>
		</g>
		<g transform="translate(450.0059,3674.999)">
			<path d="m 0,0 -150,-262.496 299.997,0 L 0,0 z" fill="#743e3b"/>
		</g>
		<g transform="translate(750.0005,3674.9985)">
			<path d="M 0,0 0.002,-0.005 0.006,0 0,0 z" fill="#6699ff"/>
		</g>
		<g transform="translate(750,3674.999)">
			<path d="m 0,0 -299.991,0 -0.003,0 149.996,-262.496 L 0,0 z" fill="#874840"/>
		</g>
		<g transform="translate(900.0034,3412.5029)">
			<path d="m 0,0 -150,262.49 -0.003,0.006 L -300.001,0 0,0 z" fill="#b36844"/>
		</g>
		<g transform="translate(600.0024,3412.5029)">
			<path d="M 0,0 150.004,-262.504 300.001,0 0,0 z" fill="#ba7242"/>
		</g>
		<g transform="translate(900.0034,1312.501)">
			<path d="M 0,0 149.997,-262.501 300.001,0 0,0 z" fill="#ab525c"/>
		</g>
		<g transform="translate(1350.0054,1050)">
			<path d="M 0,0 -150.001,262.501 -300.005,0 -299.998,0 0,0 z" fill="#b8415b"/>
		</g>
		<g transform="translate(1050.0005,1575.002)">
			<path d="m 0,0 -149.997,-262.501 300.001,0 L 0,0 z" fill="#b55651"/>
		</g>
		<g transform="translate(1349.9976,1575.002)">
			<path d="m 0,0 -299.99,0 -0.007,0 150.004,-262.501 L 0,0 z" fill="#c95349"/>
		</g>
		<g transform="translate(1349.9974,1575.0016)">
			<path d="M 0,0 0.004,-0.006 0.007,0 0,0 z" fill="#6699ff"/>
		</g>
		<g transform="translate(1350.002,1574.9951)">
			<path d="m 0,0 -0.004,0.007 -149.994,-262.501 299.998,0 L 0,0 z" fill="#db3846"/>
		</g>
		<g transform="translate(1200.0044,1312.501)">
			<path d="M 0,0 150.001,-262.501 299.998,0 0,0 z" fill="#d1354f"/>
		</g>
		<g transform="translate(900.0034,2362.502)">
			<path d="M 0,0 149.997,-262.504 300.001,0 0,0 z" fill="#db833a"/>
		</g>
		<g transform="translate(1350.0054,2099.998)">
			<path d="M 0,0 -150.001,262.504 -300.005,0 -299.998,0 0,0 z" fill="#e5894e"/>
		</g>
		<g transform="translate(1050.0005,2624.998)">
			<path d="m 0,0 -149.997,-262.496 300.001,0 L 0,0 z" fill="#dd8d3d"/>
		</g>
		<g transform="translate(1349.9974,2624.9973)">
			<path d="M 0,0 0.004,-0.006 0.007,0 0,0 z" fill="#6699ff"/>
		</g>
		<g transform="translate(1349.9976,2624.998)">
			<path d="m 0,0 -299.99,0 -0.007,0 150.004,-262.496 L 0,0 z" fill="#dd9442"/>
		</g>
		<g transform="translate(1350.002,2624.9912)">
			<path d="m 0,0 -0.004,0.007 -149.994,-262.496 299.998,0 L 0,0 z" fill="#dca442"/>
		</g>
		<g transform="translate(1200.0044,2362.502)">
			<path d="M 0,0 150.001,-262.504 299.998,0 0,0 z" fill="#dd9a40"/>
		</g>
		<g transform="translate(1200.0044,3412.5029)">
			<path d="M 0,0 -300.001,0 -150.004,-262.504 0,0 z" fill="#ddbb49"/>
		</g>
		<g transform="translate(1050.0073,3149.999)">
			<path d="M 0,0 299.998,0 149.997,262.504 -0.007,0 0,0 z" fill="#ddc55e"/>
		</g>
		<g transform="translate(1200.0044,3412.5029)">
			<path d="M 0,0 -150.004,262.496 -300.001,0 0,0 z" fill="#ddc357"/>
		</g>
		<g transform="translate(1349.9976,3674.999)">
			<path d="m 0,0 -299.99,0 -0.007,0 150.004,-262.496 L 0,0 z" fill="#d6bf5b"/>
		</g>
		<g transform="translate(1349.9974,3674.9985)">
			<path d="M 0,0 0.004,-0.006 0.007,0 0,0 z" fill="#6699ff"/>
		</g>
		<g transform="translate(1500.002,3412.5029)">
			<path d="m 0,0 -150,262.489 -0.004,0.007 L -299.998,0 0,0 z" fill="#c6b560"/>
		</g>
		<g transform="translate(1500.002,3412.5029)">
			<path d="M 0,0 -299.998,0 -149.997,-262.504 0,0 z" fill="#d1bd56"/>
		</g>
		<g transform="translate(1650.0024,1050)">
			<path d="M 0,0 150.001,262.501 -150,262.501 0,0 z" fill="#d80b2c"/>
		</g>
		<g transform="translate(1650.0024,1050)">
			<path d="m 0,0 0.004,0 299.997,0 -150,262.501 L 0,0 z" fill="#da2451"/>
		</g>
		<g transform="translate(1500.002,1312.501)">
			<path d="M 0,0 300.001,0 150,262.501 0,0 z" fill="#e92d41"/>
		</g>
		<g transform="translate(1650.0063,1575.002)">
			<path d="M 0,0 -0.004,0 149.997,-262.501 299.99,0 0,0 z" fill="#e7535d"/>
		</g>
		<g transform="translate(1949.9966,1575.0016)">
			<path d="M 0,0 0.003,-0.005 0.006,0 0,0 z" fill="#6699ff"/>
		</g>
		<g transform="translate(1949.9966,1575.002)">
			<path d="m 0,0 -149.993,-262.501 299.996,0 L 0.003,-0.006 0,0 z" fill="#dc4655"/>
		</g>
		<g transform="translate(1800.0034,1312.501)">
			<path d="M 0,0 150,-262.501 299.997,0 0,0 z" fill="#d72143"/>
		</g>
		<g transform="translate(1500.002,2362.502)">
			<path d="M 0,0 150,-262.504 300.001,0 0,0 z" fill="#dec845"/>
		</g>
		<g transform="translate(1950.0034,2099.998)">
			<path d="M 0,0 -150,262.504 -300.001,0 -299.997,0 0,0 z" fill="#d6c44f"/>
		</g>
		<g transform="translate(1650.0024,2624.998)">
			<path d="m 0,0 -150,-262.496 300.001,0 L 0,0 z" fill="#e0cb51"/>
		</g>
		<g transform="translate(1949.9966,2624.998)">
			<path d="m 0,0 -299.99,0 -0.004,0 150.001,-262.496 L 0,0 z" fill="#d5ca4e"/>
		</g>
		<g transform="translate(1949.9966,2624.9973)">
			<path d="M 0,0 0.003,-0.005 0.006,0 0,0 z" fill="#6699ff"/>
		</g>
		<g transform="translate(2100,2362.502)">
			<path d="m 0,0 -150,262.49 -0.003,0.006 L -299.997,0 0,0 z" fill="#d9d16a"/>
		</g>
		<g transform="translate(1800.0034,2362.502)">
			<path d="M 0,0 150,-262.504 299.997,0 0,0 z" fill="#d0cb53"/>
		</g>
		<g transform="translate(1800.0034,3412.5029)">
			<path d="m 0,0 -300.001,0 150,-262.504 L 0,0 z" fill="#c7bb63"/>
		</g>
		<g transform="translate(1650.0063,3149.999)">
			<path d="m 0,0 299.997,0 -150,262.504 L -0.004,0 0,0 z" fill="#bfb664"/>
		</g>
		<g transform="translate(1800.0034,3412.5029)">
			<path d="M 0,0 -150.001,262.496 -300.001,0 0,0 z" fill="#bfb66d"/>
		</g>
		<g transform="translate(1949.9966,3674.999)">
			<path d="m 0,0 -299.99,0 -0.004,0 150.001,-262.496 L 0,0 z" fill="#b2af78"/>
		</g>
		<g transform="translate(1949.9966,3674.9985)">
			<path d="M 0,0 0.003,-0.005 0.006,0 0,0 z" fill="#6699ff"/>
		</g>
		<g transform="translate(2100,3412.5029)">
			<path d="m 0,0 -150,262.49 -0.003,0.006 L -299.997,0 0,0 z" fill="#adaa7f"/>
		</g>
		<g transform="translate(2100,3412.5029)">
			<path d="m 0,0 -299.997,0 150,-262.504 L 0,0 z" fill="#bab67b"/>
		</g>
		<g transform="translate(2100,1312.501)">
			<path d="M 0,0 149.998,-262.501 300.002,0 0,0 z" fill="#a93749"/>
		</g>
		<g transform="translate(2249.998,1050)">
			<path d="M 0,0 0.006,0 300.008,0 150.004,262.501 0,0 z" fill="#734d4d"/>
		</g>
		<g transform="translate(2100,1312.501)">
			<path d="M 0,0 300.002,0 149.998,262.501 0,0 z" fill="#9f4247"/>
		</g>
		<g transform="translate(2549.9978,1575.0016)">
			<path d="M 0,0 0.004,-0.006 0.008,0 0,0 z" fill="#6699ff"/>
		</g>
		<g transform="translate(2250.0039,1575.002)">
			<path d="M 0,0 -0.006,0 149.998,-262.501 299.994,0 0,0 z" fill="#94524b"/>
		</g>
		<g transform="translate(2549.998,1575.002)">
			<path d="m 0,0 -149.996,-262.501 300,0 L 0.004,-0.007 0,0 z" fill="#6b514a"/>
		</g>
		<g transform="translate(2400.002,1312.501)">
			<path d="M 0,0 150.004,-262.501 300,0 0,0 z" fill="#52584f"/>
		</g>
		<g transform="translate(2249.998,2099.998)">
			<path d="m 0,0 150.004,262.504 -300.002,0 L 0,0 z" fill="#a2c66d"/>
		</g>
		<g transform="translate(2250.0039,2099.998)">
			<path d="M 0,0 300.002,0 149.998,262.504 -0.006,0 0,0 z" fill="#87c47b"/>
		</g>
		<g transform="translate(2400.002,2362.502)">
			<path d="M 0,0 -150.004,262.496 -300.002,0 0,0 z" fill="#a0bd66"/>
		</g>
		<g transform="translate(2549.998,2624.998)">
			<path d="M 0,0 -299.994,0 -300,0 -149.996,-262.496 0,0 z" fill="#88ba7e"/>
		</g>
		<g transform="translate(2549.9978,2624.9973)">
			<path d="M 0,0 0.004,-0.006 0.008,0 0,0 z" fill="#6699ff"/>
		</g>
		<g transform="translate(2549.998,2624.998)">
			<path d="m 0,0 -149.996,-262.496 300,0 L 0.004,-0.007 0,0 z" fill="#5cb78b"/>
		</g>
		<g transform="translate(2550.0059,2099.998)">
			<path d="m 0,0 149.996,262.504 -300,0 L 0,0 z" fill="#54c091"/>
		</g>
		<g transform="translate(2400.002,3412.5029)">
			<path d="M 0,0 -300.002,0 -150.004,-262.504 0,0 z" fill="#a6a37f"/>
		</g>
		<g transform="translate(2250.0039,3149.999)">
			<path d="M 0,0 300.002,0 149.998,262.504 -0.006,0 0,0 z" fill="#8b8f6e"/>
		</g>
		<g transform="translate(2400.002,3412.5029)">
			<path d="M 0,0 -150.004,262.496 -300.002,0 0,0 z" fill="#94977e"/>
		</g>
		<g transform="translate(2549.9978,3674.9985)">
			<path d="M 0,0 0.004,-0.006 0.008,0 0,0 z" fill="#6699ff"/>
		</g>
		<g transform="translate(2549.998,3674.999)">
			<path d="M 0,0 -299.994,0 -300,0 -149.996,-262.496 0,0 z" fill="#717870"/>
		</g>
		<g transform="translate(2700.002,3412.5029)">
			<path d="m 0,0 -150,262.489 -0.004,0.007 L -300,0 0,0 z" fill="#6c6d67"/>
		</g>
		<g transform="translate(2700.002,3412.5029)">
			<path d="M 0,0 -300,0 -149.996,-262.504 0,0 z" fill="#707364"/>
		</g>
		<g transform="translate(2850,1050)">
			<path d="m 0,0 150.004,262.501 -300.002,0 L 0,0 z" fill="#306e53"/>
		</g>
		<g transform="translate(3150,1050)">
			<path d="M 0,0 -149.996,262.501 -300,0 0,0 z" fill="#2b6c54"/>
		</g>
		<g transform="translate(2700.002,1312.501)">
			<path d="M 0,0 300.002,0 149.998,262.501 0,0 z" fill="#376b51"/>
		</g>
		<g transform="translate(3000.0039,1312.501)">
			<path d="m 0,0 149.99,262.501 -299.994,0 L 0,0 z" fill="#2a7b63"/>
		</g>
		<g transform="translate(3149.9937,1575.0016)">
			<path d="M 0,0 0.003,-0.004 0.006,0 0,0 z" fill="#6699ff"/>
		</g>
		<g transform="translate(3149.9941,1575.002)">
			<path d="m 0,0 -149.99,-262.501 299.994,0 L 0.003,-0.005 0,0 z" fill="#30826b"/>
		</g>
		<g transform="translate(3150,1050)">
			<path d="m 0,0 149.998,262.501 -299.994,0 L 0,0 z" fill="#2f7259"/>
		</g>
		<g transform="translate(2850,2099.998)">
			<path d="m 0,0 150.004,262.504 -300.002,0 L 0,0 z" fill="#0eb5a5"/>
		</g>
		<g transform="translate(3150,2099.998)">
			<path d="M 0,0 -149.996,262.504 -300,0 0,0 z" fill="#04ada8"/>
		</g>
		<g transform="translate(2700.002,2362.502)">
			<path d="M 0,0 300.002,0 149.998,262.496 0,0 z" fill="#15b0a3"/>
		</g>
		<g transform="translate(3149.9937,2624.9973)">
			<path d="M 0,0 0.003,-0.004 0.006,0 0,0 z" fill="#6699ff"/>
		</g>
		<g transform="translate(3000.0039,2362.502)">
			<path d="m 0,0 149.99,262.496 -299.994,0 L 0,0 z" fill="#0ba399"/>
		</g>
		<g transform="translate(3149.9941,2624.998)">
			<path d="m 0,0 -149.99,-262.496 299.994,0 L 0.003,-0.005 0,0 z" fill="#04aaa8"/>
		</g>
		<g transform="translate(3150,2099.998)">
			<path d="m 0,0 149.998,262.504 -299.994,0 L 0,0 z" fill="#03b8b7"/>
		</g>
		<g transform="translate(3000.0039,3412.5029)">
			<path d="M 0,0 -300.002,0 -150.004,-262.504 0,0 z" fill="#445154"/>
		</g>
		<g transform="translate(3150,3149.999)">
			<path d="M 0,0 -149.996,262.504 -300,0 0,0 z" fill="#3b4d52"/>
		</g>
		<g transform="translate(3000.0039,3412.5029)">
			<path d="M 0,0 -150.004,262.496 -300.002,0 0,0 z" fill="#443b4e"/>
		</g>
		<g transform="translate(3149.9937,3674.9985)">
			<path d="M 0,0 0.003,-0.004 0.006,0 0,0 z" fill="#6699ff"/>
		</g>
		<g transform="translate(3149.9941,3674.999)">
			<path d="M 0,0 -299.994,0 -149.99,-262.496 0,0 z" fill="#34273e"/>
		</g>
		<g transform="translate(3299.998,3412.5029)">
			<path d="m 0,0 -150.001,262.491 -0.003,0.005 L -299.994,0 0,0 z" fill="#323249"/>
		</g>
		<g transform="translate(3299.998,3412.5029)">
			<path d="M 0,0 -299.994,0 -149.998,-262.504 0,0 z" fill="#282641"/>
		</g>
		<g transform="translate(3450.002,1050)">
			<path d="m 0,0 149.996,262.501 -300,0 L 0,0 z" fill="#307660"/>
		</g>
		<g transform="translate(3750.0039,1050)">
			<path d="M 0,0 -150.006,262.501 -300.002,0 0,0 z" fill="#2f7560"/>
		</g>
		<g transform="translate(3299.998,1312.501)">
			<path d="M 0,0 300,0 150.004,262.501 0,0 z" fill="#2d8c77"/>
		</g>
		<g transform="translate(3749.9961,1575.0016)">
			<path d="M 0,0 0.004,-0.006 0.007,0 0,0 z" fill="#6699ff"/>
		</g>
		<g transform="translate(3599.998,1312.501)">
			<path d="m 0,0 149.998,262.501 -299.994,0 L 0,0 z" fill="#228273"/>
		</g>
		<g transform="translate(3750.001,1575.002)">
			<path d="m 0,0 -149.998,-262.501 300.002,0 L 0.004,-0.007 0,0 z" fill="#278777"/>
		</g>
		<g transform="translate(3750.0039,1050)">
			<path d="m 0,0 149.996,262.501 -300.002,0 L 0,0 z" fill="#2d7460"/>
		</g>
		<g transform="translate(3450.002,2099.998)">
			<path d="m 0,0 149.996,262.504 -300,0 L 0,0 z" fill="#03a4ae"/>
		</g>
		<g transform="translate(3750.0039,2099.998)">
			<path d="M 0,0 -150.006,262.504 -300.002,0 0,0 z" fill="#0890a1"/>
		</g>
		<g transform="translate(3299.998,2362.502)">
			<path d="M 0,0 300,0 150.004,262.496 0,0 z" fill="#04a1a9"/>
		</g>
		<g transform="translate(3749.9961,2624.9973)">
			<path d="M 0,0 0.004,-0.006 0.007,0 0,0 z" fill="#6699ff"/>
		</g>
		<g transform="translate(3599.998,2362.502)">
			<path d="m 0,0 149.998,262.496 -299.994,0 L 0,0 z" fill="#09889a"/>
		</g>
		<g transform="translate(3749.9961,2624.998)">
			<path d="m 0,0 -149.998,-262.496 300.002,0 L 0.004,-0.007 0,0 z" fill="#0f6f89"/>
		</g>
		<g transform="translate(3750.0039,2099.998)">
			<path d="m 0,0 149.996,262.504 -300.002,0 L 0,0 z" fill="#0c7b93"/>
		</g>
		<g transform="translate(3450.002,3149.999)">
			<path d="m 0,0 149.996,262.504 -300,0 L 0,0 z" fill="#22233f"/>
		</g>
		<g transform="translate(3750.0039,3149.999)">
			<path d="M 0,0 -150.006,262.504 -300.002,0 0,0 z" fill="#24415b"/>
		</g>
		<g transform="translate(3599.998,3412.5029)">
			<path d="M 0,0 -149.996,262.496 -300,0 0,0 z" fill="#151942"/>
		</g>
		<g transform="translate(3749.9961,3674.9985)">
			<path d="M 0,0 0.004,-0.006 0.007,0 0,0 z" fill="#6699ff"/>
		</g>
		<g transform="translate(3749.9961,3674.999)">
			<path d="M 0,0 -299.994,0 -149.998,-262.496 0,0 z" fill="#1e213c"/>
		</g>
		<g transform="translate(3749.9961,3674.999)">
			<path d="m 0,0 -149.998,-262.496 300.002,0 L 0.004,-0.007 0,0 z" fill="#303249"/>
		</g>
		<g transform="translate(3750.0039,3149.999)">
			<path d="m 0,0 149.996,262.504 -300.002,0 L 0,0 z" fill="#22233f"/>
		</g>
		<g transform="translate(3899.9995,1312.5013)">
			<path d="M 0,0 149.996,-262.501 300,0 0,0 z" fill="#2c655b"/>
		</g>
		<g transform="translate(4049.9956,1050)">
			<path d="m 0,0 0.009,0 149.995,0 0,262.501 L 0,0 z" fill="#2d5b57"/>
		</g>
		<g transform="translate(3899.9995,1312.5013)">
			<path d="M 0,0 300,0 149.996,262.5 0,0 z" fill="#2d6e69"/>
		</g>
		<g transform="translate(4050.0042,1575.0016)">
			<path d="M 0,0 -0.009,0 149.996,-262.5 149.996,0 0,0 z" fill="#2a5a5b"/>
		</g>
		<g transform="translate(3899.9995,2362.5015)">
			<path d="M 0,0 149.996,-262.504 300,0 0,0 z" fill="#1b5b6c"/>
		</g>
		<g transform="translate(4049.9956,2099.9978)">
			<path d="m 0,0 0.009,0 149.995,0 0,262.504 L 0,0 z" fill="#20525a"/>
		</g>
		<g transform="translate(3899.9995,2362.5015)">
			<path d="M 0,0 300,0 149.996,262.496 0,0 z" fill="#1a5364"/>
		</g>
		<g transform="translate(4050.0042,2624.9973)">
			<path d="M 0,0 -0.009,0 149.996,-262.496 149.996,0 0,0 z" fill="#1c4151"/>
		</g>
		<g transform="translate(4049.9956,3149.999)">
			<path d="m 0,0 0.009,0 149.995,0 0,262.503 L 0,0 z" fill="#17243e"/>
		</g>
		<g transform="translate(3899.9995,3412.5024)">
			<path d="M 0,0 300,0 149.996,262.496 0,0 z" fill="#16223d"/>
		</g>
		<g transform="translate(4050.0042,3674.9985)">
			<path d="M 0,0 -0.009,0 149.996,-262.496 149.996,0 0,0 z" fill="#2f1f33"/>
		</g>
		<g transform="translate(0,787.4998)">
			<path d="m 0,0 0,-262.5 150.005,0 L 0.007,0 0,0 z" fill="#1b5d69"/>
		</g>
		<path d="M 0,0 0,366.332 0,0 z" fill="#20515d"/>
		<g transform="translate(36.9997,1050)">
			<path d="m 0,0 -37,0 0,-262.5 0.008,0 L 113.005,0 0,0 z" fill="#23525b"/>
		</g>
		<g transform="translate(0,1050)">
			<path d="M 0,0 0,382.985 0,0 z" fill="#475451"/>
		</g>
		<g transform="translate(0,1837.502)">
			<path d="m 0,0 0,-262.5 150.005,0 L 0.007,0 0,0 z" fill="#415351"/>
		</g>
		<g transform="translate(0,2099.9978)">
			<path d="m 0,0 0,-262.496 0.007,0 L 150.005,0 0,0 z" fill="#23565e"/>
		</g>
		<g transform="translate(0,2887.4978)">
			<path d="m 0,0 0,-262.5 150.005,0 L 0.009,0 0,0 z" fill="#1b3a4c"/>
		</g>
		<g transform="translate(0,3149.999)">
			<path d="m 0,0 0,-262.501 0.009,0 -0.002,0.004 L 150.005,0 0,0 z" fill="#182840"/>
		</g>
		<g transform="translate(0,3937.4946)">
			<path d="m 0,0 0,-262.496 150.005,0 L 0.007,0 0,0 z" fill="#14203a"/>
		</g>
		<g transform="translate(0,4200)">
			<path d="m 0,0 0,-262.505 0.007,0 L 150.005,0 0,0 z" fill="#1c4951"/>
		</g>
		<g transform="translate(0,262.4929)">
			<path d="m 0,0 0,-262.493 150.005,0 L 0.007,0.007 0,0 z" fill="#245561"/>
		</g>
	</g>
</svg>
