<?xml version="1.0" encoding="UTF-8" standalone="no"?>
<!-- Created with Inkscape (http://www.inkscape.org/) -->
<svg xmlns="http://www.w3.org/2000/svg" version="1.1" width="293" height="51">
<g transform="translate(227,-446.75)">
<g id="text" transform="scale(1.05,0.9525)" style="fill:#000;fill-opacity:1;stroke:none;">
<path id="C" d="m -193.75,488.05 0,1.65 -4.65,0 0,-1.55 c 0.05,-1.15 -0.25,-1.85 -0.8,-2.15 -0.35,-0.2 -1.25,-0.25 -2.6,-0.25 l -6,0 c -1.75,0 -2.65,0.65 -2.65,1.9 l 0,19.05 c 0,1.3 0.95,1.95 2.90,1.95 l 5.70,0 c 1.75,0 2.8,-0.25 3.15,-0.75 0.2,-0.3 0.25,-1.35 0.25,-3.25 l 4.7,0 0,2.8 c 0,1.5 -0.15,2.6 -0.45,3.25 -0.6,1.35 -2.35,2 -5.4,2 l -9.75,0 c -3.05,0 -4.85,-0.65 -5.45,-2 -0.3,-0.65 -0.45,-1.65 -0.45,-3 l 0,-21 c 0,-1.4 0.15,-2.45 0.45,-3.05 0.6,-1.34 2.45,-2 5.65,-1.95 l 8.05,0 c 3.25,0 5.25,0.3 6.05,0.85 0.85,0.7 1.25,2.5 1.25,5.5"/>
<path id="B" d="m -168.95,500.45 0,7.20 c 0,1.35 -0.15,2.35 -0.45,3 -0.55,1.35 -2.45,2 -5.6,2 l -15.4,0 0,-30.95 15.4,0 c 3.15,0 5,0.65 5.6,1.95 0.3,0.65 0.45,1.65 0.45,3 l 0,7.25 c 0,1.45 -0.7,2.55 -2.15,3.25 1.45,0.65 2.15,1.75 2.15,3.3 m -4.7,-7.25 0,-5.55 c 0,-1.25 -0.95,-1.9 -2.8,-1.9 l -9.2,0 0,9.35 9.35,0 c 1.75,0 2.65,-0.65 2.65,-1.95 m 0,13.5 0,-5.5 c 0,-1.3 -0.95,-1.95 -2.8,-1.95 l -9.2,0 0,9.35 9.35,0 c 1.75,0 2.65,-0.65 2.65,-1.95"/>
<path id="O" d="m -144.15,507.65 c 0,1.35 -0.15,2.35 -0.4,3 -0.6,1.35 -2.35,2 -5.4,2 l -9.85,0 c -3,0 -4.8,-0.65 -5.4,-2 -0.3,-0.65 -0.45,-1.65 -0.45,-3 l 0,-21 c 0,-1.4 0.15,-2.45 0.5,-3.1 0.6,-1.2 2.4,-1.85 5.4,-1.85 l 9.7,0 c 3,0 4.8,0.6 5.4,1.85 0.3,0.7 0.5,1.7 0.5,3.1 l 0,21 m -4.7,-0.95 0,-19.05 c 0,-1.25 -0.95,-1.9 -2.8,-1.9 l -6.45,0 c -1.85,0 -2.75,0.65 -2.75,1.9 l 0,19.05 c 0,1.3 0.9,1.95 2.75,1.95 l 6.45,0 c 1.85,0 2.8,-0.65 2.8,-1.95"/>
<path id="J" d="m -119.35,485.05 c 0,1.05 -0.5,1.55 -1.55,1.55 l -1.55,0 c -1.075,0 -1.6,-0.5 -1.6,-1.55 l 0,-1.85 c 0,-1.05 0.55,-1.55 1.6,-1.55 l 1.55,0 c 1.05,0 1.55,0.5 1.55,1.55 l 0,1.85 m 0,6.35 0,16.25 c 0,1.35 -0.15,2.35 -0.45,3 -0.55,1.35 -2.35,2 -5.4,2 l -9.75,0 c -3,0 -4.85,-0.65 -5.45,-2 -0.3,-0.65 -0.45,-1.65 -0.45,-3 l 0,-3 4.75,0 -0.05,1.5 c 0,1.15 0.3,1.9 0.85,2.2 0.35,0.2 1.2,0.25 2.5,0.25 l 6,0 c 1.8,0 2.7,-0.65 2.7,-1.95 l 0,-15.3 4.7,0"/>
<path id="A" d="m -94.6,507.65 c 0,1.35 -0.145,2.35 -0.45,3.015 -0.6,1.35 -2.35,2 -5.4,2 l -9.8,0 c -3,0 -4.8,-0.65 -5.4,-2 -0.3,-0.65 -0.45,-1.65 -0.45,-3 l 0,-7.45 c 0,-1.45 0.15,-2.45 0.5,-3.05 0.45,-0.8 1.45,-1.25 3,-1.45 0.5,-0.05 1.7,-0.1 3.55,-0.1 l 9.7,0 0,-7.95 c 0,-1.25 -0.9,-1.9 -2.7,-1.9 l -5.95,0 c -1.75,0 -2.8,0.25 -3.1,0.75 -0.2,0.3 -0.25,1.35 -0.25,3.25 l -4.7,0 0,-2.8 c 0,-1.5 0.15,-2.6 0.45,-3.25 0.55,-1.35 2.35,-2 5.4,-2 l 9.8,0 c 3,0 4.8,0.65 5.4,2 0.3,0.65 0.45,1.65 0.45,3 l 0,20.95 m -4.7,-8.4 -9.4,0 c -1.75,0 -2.65,0.65 -2.65,1.95 l 0,5.5 c 0,1.3 0.95,1.95 2.8,1.95 l 6.45,0 c 1.85,0 2.8,-0.65 2.8,-1.95 l 0,-7.45" />
<path id="R" d="m -69.75,488.05 0,1.65 -4.75,0 0.05,-1.55 c 0,-1.15 -0.3,-1.85 -0.85,-2.15 -0.35,-0.2 -1.2,-0.25 -2.55,-0.25 l -6.05,0 c -1.75,0 -2.65,0.65 -2.65,1.9 l 0,25 -4.7,0 0,-26 c 0,-1.35 0.15,-2.35 0.45,-3 0.55,-1.3 2.45,-1.95 5.6,-1.95 l 8.15,0 c 3.25,0 5.25,0.3 6,0.85 0.85,0.7 1.3,2.5 1.3,5.5" />
<path id="dot" d="m -62,511 c 0,1.1 -0.5,1.6 -1.55,1.6 l -1.55,0 c -1.1,0 -1.6,-0.55 -1.6,-1.6 l 0,-1.8 c 0,-1.1 0.55,-1.6 1.6,-1.6 l 1.55,0 c 1.05,0 1.55,0.55 1.55,1.6 l 0,1.8" />
<path id="N" d="m -36.85,512.7 -4.7,0 0,-25.1 c 0,-1.3 -0.9,-1.95 -2.7,-1.95 l -6.6,0 c -1.8,0 -2.7,0.65 -2.7,1.95 l 0,25.1 -4.75,0 0,-26 c 0,-1.4 0.145,-2.4 0.45,-3.05 0.55,-1.35 2.4,-2 5.45,-2 l 9.75,0 c 3,0 4.8,0.65 5.4,2 0.3,0.65 0.45,1.65 0.45,3.05 l 0,26" />
<path id="E" d="m -12,507.4 c 0,1.5 -0.15,2.6 -0.45,3.25 -0.55,1.35 -2.35,2 -5.4,2 l -9.8,0 c -3,0 -4.8,-0.65 -5.4,-2 -0.3,-0.65 -0.45,-1.65 -0.45,-3 l 0,-20.95 c 0,-1.35 0.15,-2.35 0.45,-3 0.55,-1.35 2.35,-2 5.4,-2 l 9.8,0 c 3,0 4.8,0.65 5.4,2 0.3,0.65 0.45,1.65 0.45,3 l 0,7.35 c 0,1.45 -0.15,2.45 -0.5,3.05 -0.4,0.8 -1.4,1.3 -2.95,1.5 -0.5,0.05 -1.7,0.1 -3.6,0.1 l -9.7,0 0,7.9 c 0,1.3 0.9,1.95 2.7,1.95 l 5.95,0 c 1.75,0 2.8,-0.25 3.1,-0.75 0.2,-0.3 0.25,-1.35 0.25,-3.25 l 4.7,0 0,2.8 m -4.7,-14.25 0,-5.55 c 0,-1.25 -0.95,-1.9 -2.8,-1.9 l -6.45,0 c -1.85,0 -2.8,0.65 -2.8,1.9 l 0,7.5 9.4,0 c 1.75,0 2.65,-0.65 2.65,-1.95" />
<path id="T" d="m -1.35,499.25 0,7.45 c 0,1.3 0.9,1.95 2.7,1.95 l 6,0 c 1.75,0 2.8,-0.25 3.1,-0.75 0.2,-0.3 0.25,-1.35 0.25,-3.25 l 4.7,0 0,2.8 c 0,1.55 -0.145,2.65 -0.45,3.3 -0.6,1.3 -2.4,1.95 -5.45,1.95 l -9.75,0 c -3,0 -4.8,-0.65 -5.4,-1.95 -0.3,-0.65 -0.45,-1.65 -0.45,-3.05 0,-2.8 0,-4.2 0,-4.2 0,0 0,-1.4 0,-4.2 l -2.15,0 0,-4.15 2.15,0 0,-13.4 4.7,0 0,13.4 9.45,0 0,4.15 -9.45,0" />
</g>
<g id="waves" transform="matrix(0.1210564,0.09389458,-0.10044956,0.11315667,28.545795,404.81141)" style="fill:#000;fill-opacity:1;fill-rule:evenodd;stroke:none">
<path d="m 247.75,194.45 0,44.3 c 38.55,-0 77.3,12.8 109.45,39.1 41.75,34.15 63.4,83.75 63.4,133.8 l 42.85,0 C 463.45,348.8 436.25,286.45 383.85,243.55 343.85,210.85 295.7,194.75 247.75,194.45 z"/>
<path d="m 241.35,269.8 0,45.7 c 22.6,0 45.35,7.5 64.2,22.95 24.5,20.05 37.2,49.15 37.2,78.5 l 45.7,0 c 0,-42.6 -18.45,-84.8 -54,-113.9 -27.35,-22.4 -60.4,-33.3 -93.2,-33.3 z"/>
</g>
</g>
</svg>
